<?xml version="1.0" encoding="UTF-8"?>
<!DOCTYPE svg PUBLIC "-//W3C//DTD SVG 1.1//EN" "http://www.w3.org/Graphics/SVG/1.1/DTD/svg11.dtd">
<svg version="1.2" xmlns="http://www.w3.org/2000/svg" xmlns:xlink="http://www.w3.org/1999/xlink" x="0" y="0" width="878" height="543" viewBox="0 0 878 543">
<style type="text/css"><![CDATA[
text { font:12px Dialog; }
]]></style>
<rect x="-487" y="-485" width="1851" height="1513" style="fill:rgb(198,217,241);stroke:none" />
<clipPath id="clip1"><path d="M385,14 L489,14 L489,118 L385,118 L385,14 Z" /></clipPath>
<path d="M484,65.4999924 C484,39.2664642 462.7335205,17.9999924 436.4999695,18 C410.266449,18.0000076 389,39.2664948 389,65.5000153 C389,91.7335434 410.2664795,113.0000153 436.500061,112.9999924 C462.7335815,112.9999542 484.0000305,91.7334595 484,65.499939 Z" style="fill:none;stroke:rgb(32,150,243);stroke-width:5" clip-path="url(#clip1)" />
<clipPath id="clip2"><path d="M410,51 L464,51 L464,81 L410,81 L410,51 Z" /></clipPath>
<path d="M422.7163086,73.3366699 L422.4702148,65.7590332 L422.3779297,62.7341309 L421.7319336,64.7849121 L420.2451172,69.3479004 L418.6660156,69.3479004 L417.3227539,64.7849121 L416.7587891,62.7341309 L416.6870117,65.6975098 L416.4614258,73.3366699 L414.3183594,73.3366699 L414.9746094,59.9348145 L417.8251953,59.9348145 L419.0043945,63.7390137 L419.5683594,65.8820801 L420.1323242,63.8620605 L421.3730469,59.9348145 L424.2749023,59.9348145 L424.9414063,73.3366699 Z M433.7084961,73.3366699 L433.6469727,71.9729004 C433.4284363,72.2061768 433.199646,72.4195862 432.9599609,72.6144104 C432.7209167,72.8092346 432.4575195,72.9784241 432.1704102,73.1219788 C431.8833008,73.2655334 431.5705566,73.3764038 431.2321777,73.4545898 C430.8937988,73.5334167 430.5233765,73.5725098 430.1196289,73.5725098 C429.5864258,73.5725098 429.1185913,73.4943237 428.7148438,73.3366699 C428.3117371,73.1802979 427.9733582,72.9617615 427.699707,72.6810608 C427.4266968,72.401001 427.219696,72.0626221 427.0793457,71.6659241 C426.9396362,71.2698669 426.8691406,70.8321533 426.8691406,70.3527832 C426.8691406,69.8612366 426.9736023,69.4068604 427.1818848,68.9896545 C427.3908081,68.5730896 427.7086792,68.2142029 428.135498,67.9129944 C428.5629578,67.6124268 429.0961609,67.3765869 429.7351074,67.2054749 C430.3746948,67.0350037 431.1245117,66.9491272 431.9858398,66.9484863 L433.3496094,66.9484863 L433.3496094,66.322998 C433.3496094,66.0570374 433.312439,65.8160706 433.2368164,65.6007385 C433.1618347,65.3854065 433.0407104,65.2027588 432.8728027,65.0521545 C432.7055359,64.9021912 432.4882813,64.785553 432.2216797,64.7035217 C431.9550781,64.6214905 431.6269531,64.5804749 431.2373047,64.579834 C430.6220703,64.5804749 430.0158081,64.6509705 429.4172363,64.7906799 C428.8193054,64.9310303 428.2399597,65.1271362 427.6791992,65.3796387 L427.6791992,63.380127 C428.1784363,63.1827393 428.7545776,63.0186768 429.4069824,62.8885803 C430.0600281,62.7591248 430.7387085,62.6937561 431.4423828,62.6931152 C432.215271,62.6937561 432.8779297,62.7674561 433.4316406,62.9142151 C433.9853516,63.061615 434.4416504,63.282074 434.8005371,63.575592 C435.1594238,63.869751 435.4247437,64.236969 435.5952148,64.677887 C435.7663269,65.1188049 435.8515625,65.6334229 435.8515625,66.220459 L435.8515625,73.3366699 Z M433.3496094,68.732666 L431.8217773,68.732666 C431.3981628,68.7333069 431.0392761,68.7743225 430.7451172,68.8563538 C430.4515991,68.938385 430.2119141,69.051178 430.0273438,69.1947327 C429.8427734,69.3382874 429.7081909,69.5042725 429.6223145,69.6920471 C429.5370789,69.8804626 429.4941406,70.0797729 429.4941406,70.2912598 C429.4941406,70.7155151 429.6312866,71.0391541 429.9042969,71.2608948 C430.177948,71.4832764 430.550293,71.5941467 431.0219727,71.5935059 C431.3706055,71.5941467 431.7333374,71.4678955 432.1088867,71.2147522 C432.4850769,70.9622498 432.8984375,70.5995178 433.3496094,70.1271973 Z M445.203125,60.0681152 C445.203125,60.294342 445.1621094,60.5064697 445.0800781,60.7044983 C444.9980469,60.9031677 444.8839722,61.0755615 444.7365723,61.2223206 C444.5898132,61.3697205 444.4174194,61.4857178 444.21875,61.5709534 C444.0207214,61.6568298 443.8053894,61.6991272 443.5727539,61.6984863 C443.3407593,61.6991272 443.1235046,61.6568298 442.9216309,61.5709534 C442.7203979,61.4857178 442.5460815,61.3697205 442.3986816,61.2223206 C442.2519226,61.0755615 442.137207,60.9031677 442.0551758,60.7044983 C441.9731445,60.5064697 441.9321289,60.294342 441.9321289,60.0681152 C441.9321289,59.8431702 441.9731445,59.6316833 442.0551758,59.4330139 C442.137207,59.2349854 442.2519226,59.0606689 442.3986816,58.9100647 C442.5460815,58.7601013 442.7203979,58.6421814 442.9216309,58.5563049 C443.1235046,58.4710693 443.3407593,58.4281311 443.5727539,58.4274902 C443.8053894,58.4281311 444.0207214,58.4710693 444.21875,58.5563049 C444.4174194,58.6421814 444.5898132,58.7601013 444.7365723,58.9100647 C444.8839722,59.0606689 444.9980469,59.2349854 445.0800781,59.4330139 C445.1621094,59.6316833 445.203125,59.8431702 445.203125,60.0681152 Z M442.4345703,64.8669434 L439.4916992,64.8669434 L439.4916992,62.9187012 L444.9980469,62.9187012 L444.9980469,71.3884277 L448.0024414,71.3884277 L448.0024414,73.3366699 L439.1328125,73.3366699 L439.1328125,71.3884277 L442.4345703,71.3884277 Z M457.1796875,73.3366699 L457.1796875,66.548584 C457.1796875,65.4078369 456.756073,64.8368225 455.9082031,64.8361816 C455.4845886,64.8368225 455.0795593,65.0079346 454.6931152,65.3495178 C454.307312,65.6917419 453.8984375,66.1563721 453.4677734,66.7434082 L453.4677734,73.3366699 L450.9658203,73.3366699 L450.9658203,62.9187012 L453.1293945,62.9187012 L453.190918,64.4567871 C453.4030457,64.1908264 453.6235046,63.9485779 453.8522949,63.7294006 C454.0817261,63.5108643 454.3291016,63.3243713 454.5957031,63.1705627 C454.8623047,63.0167542 455.1494141,62.8988342 455.4570313,62.816803 C455.7646484,62.7347717 456.1100769,62.6937561 456.4926758,62.6931152 C457.0258789,62.6937561 457.4911499,62.7809143 457.887207,62.9552307 C458.283905,63.1295471 458.6152344,63.3756409 458.8818359,63.693512 C459.1484375,64.0113831 459.3483887,64.3946228 459.4816895,64.8419495 C459.6149902,65.289917 459.6816406,65.7904358 459.6816406,66.3435059 L459.6816406,73.3366699 Z" style="fill:rgb(117,117,117);stroke:none" clip-path="url(#clip2)" />
<clipPath id="clip3"><path d="M350,229 L524,229 L524,293 L350,293 L350,229 Z" /></clipPath>
<path d="M361,232 C356.5817261,232 353,235.5817261 353,240 L353,281 C353,285.4182739 356.5817261,289 361,289 L512,289 C516.4182739,289 520,285.4182739 520,281 L520,240 C520,235.5817261 516.4182739,232 512,232 Z" style="fill:rgb(195,214,155);opacity:0.2;stroke:none" clip-path="url(#clip3)" />
<clipPath id="clip4"><path d="M350,229 L524,229 L524,293 L350,293 L350,229 Z" /></clipPath>
<path d="M361,232 C356.5817261,232 353,235.5817261 353,240 L353,281 C353,285.4182739 356.5817261,289 361,289 L512,289 C516.4182739,289 520,285.4182739 520,281 L520,240 C520,235.5817261 516.4182739,232 512,232 Z" style="fill:none;stroke:rgb(119,147,60);stroke-width:3;stroke-dasharray:3,3;stroke-dashoffset:0" clip-path="url(#clip4)" />
<clipPath id="clip5"><path d="M360,239 L514,239 L514,283 L360,283 L360,239 Z" /></clipPath>
<path d="M361,240 L361,281 L512,281 L512,240 Z" style="fill:rgb(73,96,166);stroke:none" clip-path="url(#clip5)" />
<clipPath id="clip6"><path d="M374,246 L500,246 L500,276 L374,276 L374,246 Z" /></clipPath>
<path d="M378.3859863,266.3012695 L378.3859863,252.8994141 L382.7131348,252.8994141 C384.2377625,252.9000549 385.381073,253.1666565 386.1430664,253.6998596 C386.9057007,254.2330627 387.286377,255.039917 387.286377,256.1191406 C387.286377,256.4549561 387.2472839,256.7811584 387.168457,257.0990295 C387.090271,257.4169006 386.9685059,257.709137 386.8044434,257.9757385 C386.6403809,258.2423401 386.4353027,258.4781799 386.189209,258.6832581 C385.9431152,258.8883362 385.6528015,259.0491943 385.317627,259.1645508 C385.6528015,259.2196655 385.9725952,259.3279724 386.2763672,259.4881897 C386.58078,259.6490479 386.8473816,259.8573303 387.0761719,260.113678 C387.305603,260.3700256 387.4863281,260.6725159 387.6196289,261.0211487 C387.7529297,261.3697815 387.8195801,261.7594299 387.8195801,262.1894531 C387.8195801,263.5570679 387.3619995,264.5843811 386.4455566,265.2713928 C385.5297546,265.9584045 384.2070007,266.3012695 382.4772949,266.3012695 Z M384.661377,256.5600586 C384.661377,256.3075562 384.6203613,256.0787659 384.5383301,255.8736877 C384.4562988,255.6686096 384.3249207,255.4942932 384.1435547,255.3507385 C383.9628296,255.2071838 383.7301941,255.0963135 383.4462891,255.0174866 C383.1630249,254.9393005 382.819519,254.8995667 382.4157715,254.8989258 L380.8879395,254.8989258 L380.8879395,258.4467773 L382.4157715,258.4467773 C382.8259277,258.4474182 383.1732788,258.3980713 383.456543,258.2987366 C383.740448,258.2000427 383.9730835,258.0628967 384.1538086,257.8885803 C384.3351746,257.7142639 384.465271,257.5143127 384.543457,257.2887268 C384.6222839,257.0631409 384.661377,256.8202515 384.661377,256.5600586 Z M382.6516113,264.2402344 C383.0553589,264.2408752 383.4091187,264.1896057 383.7128906,264.0870667 C384.0173035,263.9845276 384.2717285,263.8428955 384.4768066,263.6615295 C384.6818848,263.4808044 384.837616,263.2667542 384.9433594,263.0206604 C385.0497437,262.7745667 385.1022949,262.5111694 385.1022949,262.2304688 C385.1022949,261.6498413 384.8856812,261.1954651 384.4511719,260.8673401 C384.0173035,260.5392151 383.3527222,260.3751526 382.4567871,260.3745117 L380.8879395,260.3745117 L380.8879395,264.2402344 Z M393.7463379,253.7607422 L390.8034668,253.7607422 L390.8034668,251.8125 L396.3098145,251.8125 L396.3098145,264.3530273 L399.314209,264.3530273 L399.314209,266.3012695 L390.4445801,266.3012695 L390.4445801,264.3530273 L393.7463379,264.3530273 Z M411.6599121,261.0102539 C411.6599121,261.8312073 411.5439148,262.581665 411.3112793,263.2616272 C411.0792847,263.9422302 410.7441101,264.5247803 410.3063965,265.0099182 C409.8693237,265.495697 409.3322754,265.8712463 408.6965332,266.1378479 C408.060791,266.4044495 407.3366089,266.5371094 406.5227051,266.5371094 C405.7504578,266.5371094 405.0602417,266.4249573 404.451416,266.1993713 C403.8432312,265.9737854 403.3273315,265.6373291 402.9030762,265.1893616 C402.4794617,264.7420349 402.154541,264.1812744 401.9289551,263.5077209 C401.7033691,262.8348083 401.5905762,262.0497437 401.5905762,261.1538086 C401.5905762,260.3270874 401.7084961,259.5753479 401.9443359,258.8985901 C402.1801758,258.2218323 402.5185547,257.6444092 402.9594727,257.1656799 C403.4003906,256.6875916 403.9387207,256.3165283 404.5744629,256.0531311 C405.2102051,255.7903748 405.9279785,255.6583557 406.7277832,255.6577148 C407.5070801,255.6583557 408.2011414,255.7730713 408.8093262,256.0018616 C409.4181519,256.2312927 409.9340515,256.5709534 410.357666,257.0221252 C410.7819214,257.4732971 411.1049194,258.032135 411.3266602,258.6986389 C411.5490417,259.3651428 411.6599121,260.1361084 411.6599121,261.0102539 Z M409.0554199,261.0717773 C409.0554199,259.9925537 408.8522644,259.1805725 408.4453125,258.6371155 C408.0390015,258.0936584 407.4391479,257.8219299 406.645752,257.8212891 C406.2086792,257.8219299 405.8356934,257.9078064 405.5280762,258.0782776 C405.220459,258.2493896 404.9679565,258.4833069 404.7692871,258.7806702 C404.5712585,259.0780334 404.4257813,259.4253845 404.3334961,259.8214417 C404.2412109,260.2181396 404.1950684,260.6417542 404.1950684,261.0922852 C404.1950684,262.1798401 404.4142456,262.9988708 404.8513184,263.5487366 C405.289032,264.0992432 405.8869629,264.374176 406.645752,264.3735352 C407.0629578,264.374176 407.4250488,264.290863 407.732666,264.1229553 C408.0402832,263.9556885 408.2902222,263.723053 408.4812012,263.4256897 C408.672821,263.1283264 408.8163757,262.7784119 408.9118652,262.3746643 C409.0079956,261.9715576 409.0554199,261.5370483 409.0554199,261.0717773 Z M422.6008301,265.9013672 C422.1086426,266.1000366 421.5997925,266.2474365 421.072998,266.3422852 C420.5468445,266.4384155 419.9963379,266.4858398 419.4221191,266.4858398 C418.5953979,266.4858398 417.8532715,266.3736877 417.1970215,266.1481018 C416.5407715,265.9225159 415.9838562,265.5879822 415.5256348,265.143219 C415.0680542,264.6990967 414.7174988,264.1485901 414.4746094,263.4923401 C414.2323608,262.8360901 414.1105957,262.077301 414.1105957,261.215332 C414.1105957,260.3822021 414.2426147,259.6266174 414.5053711,258.9498596 C414.7687683,258.2731018 415.1398315,257.6956787 415.6179199,257.2169495 C416.0966492,256.7388611 416.6727905,256.3697205 417.3457031,256.1095276 C418.0192566,255.8499756 418.7697144,255.7198792 419.5964355,255.7192383 C420.2731934,255.7198792 420.8422852,255.7557678 421.3037109,255.8275452 C421.7651367,255.8993225 422.1804199,255.9896851 422.5495605,256.0986328 L422.5495605,258.5288086 C422.125946,258.3173218 421.6664429,258.1539001 421.1704102,258.037262 C420.6750183,257.9212646 420.2052612,257.8629456 419.760498,257.8623047 C419.2958679,257.8629456 418.8786621,257.9417725 418.5095215,258.0987854 C418.1403809,258.2564392 417.8295593,258.4749756 417.576416,258.7550354 C417.3239136,259.0357361 417.1303711,259.3753967 416.9970703,259.7752991 C416.8637695,260.1752014 416.7971191,260.6141968 416.7971191,261.0922852 C416.7971191,261.5921631 416.8688965,262.0401306 417.0124512,262.4361877 C417.1560059,262.8328857 417.3598022,263.169342 417.6225586,263.4461975 C417.8859558,263.723053 418.2019043,263.9351807 418.5710449,264.0819397 C418.9401855,264.2293396 419.3503418,264.3023987 419.8015137,264.3017578 C420.0206909,264.3023987 420.2514038,264.2870178 420.4936523,264.2562561 C420.7365417,264.2254944 420.9794312,264.1812744 421.2216797,264.1229553 C421.4645691,264.0652771 421.7036133,263.9986267 421.9394531,263.9230042 C422.175293,263.8480225 422.395752,263.7659912 422.6008301,263.6762695 Z M432.5163574,266.3012695 L428.6711426,261.0922852 L428.6711426,266.3012695 L426.1691895,266.3012695 L426.1691895,251.8125 L428.6711426,251.8125 L428.6711426,260.2924805 L432.3112793,255.8833008 L435.4387207,255.8833008 L431.2141113,260.6308594 L435.7873535,266.3012695 Z M441.0065918,266.4038086 C439.6325684,266.1513062 438.6071777,265.4649353 437.9304199,264.3434143 C437.2536621,263.2225342 436.9152832,261.6844482 436.9152832,259.7285156 C436.9152832,258.5191956 437.0575562,257.4720154 437.3408203,256.5863342 C437.6247253,255.7012939 438.0143738,254.9700623 438.5097656,254.3919983 C439.0057983,253.8145752 439.5864258,253.3839111 440.2529297,253.1000061 C440.9194336,252.8167419 441.6320801,252.674469 442.3908691,252.6738281 C444.154541,252.674469 445.4811401,253.2557373 446.3693848,254.4176331 C447.2582703,255.5801697 447.7023926,257.2579651 447.7023926,259.4516602 C447.7023926,260.4981995 447.5966492,261.4248962 447.3845215,262.2311096 C447.1730347,263.0379639 446.8737488,263.7281799 446.4873047,264.3023987 C446.1015015,264.8766174 445.6452026,265.3380432 445.1184082,265.686676 C444.5922546,266.0353088 444.0212402,266.274353 443.4060059,266.4038086 C443.4611206,266.7319336 443.5514832,267.0023804 443.6777344,267.2138672 C443.8046265,267.4259949 443.9545898,267.5932617 444.1289063,267.7163086 C444.3032227,267.8393555 444.4929199,267.9252319 444.697998,267.9726563 C444.9030762,268.0207214 445.1152039,268.0444336 445.3337402,268.0444336 C445.6278992,268.0444336 445.9201355,267.9829102 446.2104492,267.8598633 C446.5014038,267.7368164 446.7628784,267.5663452 446.994873,267.347168 L448.1535645,269.0698242 C447.7229004,269.4325562 447.2531433,269.7094116 446.7436523,269.9003906 C446.2348022,270.0920105 445.7233887,270.1875 445.2106934,270.1875 C444.5685425,270.1875 443.9924011,270.1125183 443.4829102,269.9619141 C442.9740601,269.8119507 442.5395508,269.5812378 442.1806641,269.2697754 C441.8217773,268.9589539 441.5436401,268.5661011 441.3449707,268.0905762 C441.1469421,267.6156921 441.0341492,267.0536499 441.0065918,266.4038086 Z M445.036377,259.6669922 C445.036377,258.0814819 444.8280945,256.8990784 444.4108887,256.1197815 C443.9943237,255.3404846 443.307312,254.9508362 442.3498535,254.9501953 C441.8647156,254.9508362 441.4475098,255.0520935 441.098877,255.2533264 C440.7502441,255.4552002 440.4631348,255.7525635 440.2375488,256.1454163 C440.0119629,256.5389099 439.8466187,257.0208435 439.7402344,257.591217 C439.634491,258.1622314 439.5812988,258.8133545 439.5812988,259.5439453 C439.5812988,261.1166382 439.7953491,262.2964783 440.222168,263.0821838 C440.6496277,263.8685303 441.3449707,264.2613831 442.3088379,264.2607422 C442.7946167,264.2613831 443.2098999,264.1607666 443.5546875,263.9588928 C443.900116,263.7576599 444.1820984,263.4615784 444.4006348,263.0719299 C444.619812,262.6822815 444.7800293,262.2022705 444.8825684,261.6312561 C444.9851074,261.0608826 445.036377,260.4059143 445.036377,259.6669922 Z M452.3371582,255.8833008 L452.3371582,262.6713867 C452.3371582,263.2391968 452.4435425,263.6685791 452.6550293,263.9588928 C452.867157,264.2498474 453.1882324,264.3946838 453.6188965,264.394043 C454.0361023,264.3946838 454.4379272,264.22229 454.8237305,263.8768616 C455.2101746,263.532074 455.6184082,263.0648804 456.0490723,262.4765625 L456.0490723,255.8833008 L458.5510254,255.8833008 L458.5510254,266.3012695 L456.3874512,266.3012695 L456.3259277,264.7631836 C456.1073914,265.030426 455.8850098,265.2733154 455.6594238,265.4918518 C455.4338379,265.7110291 455.1896667,265.8968811 454.9262695,266.0506897 C454.6635132,266.2044983 454.3764038,266.3237 454.0649414,266.4089355 C453.7541199,266.494812 453.410614,266.5371094 453.0344238,266.5371094 C452.5012207,266.5371094 452.034668,266.450592 451.6347656,266.2762756 C451.2348633,266.1019592 450.9016113,265.8545837 450.6350098,265.5328674 C450.3684082,265.211792 450.168457,264.8272705 450.0351563,264.379303 C449.9018555,263.9319763 449.8352051,263.4308167 449.8352051,262.8764648 L449.8352051,255.8833008 Z M470.8249512,260.2924805 C470.8249512,260.4642334 470.8198242,260.686615 470.8095703,260.9596252 C470.7993164,261.2332764 470.7839355,261.489624 470.7634277,261.7280273 L463.9138184,261.7280273 C463.9138184,262.1868896 463.984314,262.5899963 464.1240234,262.9386292 C464.2643738,263.287262 464.4624023,263.5794983 464.71875,263.8153381 C464.9750977,264.051178 465.2827148,264.2306213 465.6416016,264.3536682 C466.0004883,264.4767151 466.3991089,264.5382385 466.8361816,264.5375977 C467.3424683,264.5382385 467.8840027,264.4991455 468.4614258,264.4203186 C469.0394897,264.3421326 469.6393433,264.2133179 470.2609863,264.0351563 L470.2609863,266.0244141 C469.9943848,266.1000366 469.704071,266.1686096 469.3894043,266.2301331 C469.0753784,266.2916565 468.7536621,266.3461304 468.4255371,266.3935547 C468.0974121,266.4416199 467.7660828,266.4775085 467.4309082,266.5012207 C467.0963745,266.5255737 466.7714539,266.5371094 466.4567871,266.5371094 C465.664032,266.5371094 464.9533081,266.4249573 464.3239746,266.1993713 C463.695282,265.9737854 463.1620789,265.6405334 462.7243652,265.1996155 C462.2872925,264.7586975 461.9521179,264.2139587 461.7194824,263.5641174 C461.4874878,262.914917 461.3708496,262.1625366 461.3708496,261.3076172 C461.3708496,260.4603882 461.4874878,259.6900635 461.7194824,258.9960022 C461.9521179,258.3025818 462.2802429,257.7078552 462.7038574,257.2118225 C463.1281128,256.7164307 463.6420898,256.3338318 464.2470703,256.063385 C464.8520508,255.7935791 465.5275269,255.6583557 466.2722168,255.6577148 C467.010498,255.6583557 467.6635437,255.7730713 468.2307129,256.0018616 C468.7985229,256.2312927 469.273407,256.5504456 469.6560059,256.9606018 C470.0392456,257.3707581 470.3295593,257.8597412 470.5275879,258.4269104 C470.7262573,258.9947205 470.8249512,259.6163635 470.8249512,260.2924805 Z M468.2819824,259.9335938 C468.289032,259.5240784 468.2377625,259.1671143 468.1281738,258.8627014 C468.0192261,258.5589294 467.8705444,258.3077087 467.6821289,258.1090393 C467.4943542,257.9110107 467.2758179,257.7642517 467.0258789,257.6681213 C466.7765808,257.5726318 466.5080566,257.5245667 466.2209473,257.5239258 C465.5922546,257.5245667 465.076355,257.7347717 464.6726074,258.1551819 C464.2695007,258.575592 464.0304565,259.168396 463.954834,259.9335938 Z M476.1262207,255.8833008 L476.1262207,262.6713867 C476.1262207,263.2391968 476.232605,263.6685791 476.4440918,263.9588928 C476.6562195,264.2498474 476.9772949,264.3946838 477.407959,264.394043 C477.8251648,264.3946838 478.2269897,264.22229 478.612793,263.8768616 C478.9992371,263.532074 479.4074707,263.0648804 479.8381348,262.4765625 L479.8381348,255.8833008 L482.3400879,255.8833008 L482.3400879,266.3012695 L480.1765137,266.3012695 L480.1149902,264.7631836 C479.8964539,265.030426 479.6740723,265.2733154 479.4484863,265.4918518 C479.2229004,265.7110291 478.9787292,265.8968811 478.715332,266.0506897 C478.4525757,266.2044983 478.1654663,266.3237 477.8540039,266.4089355 C477.5431824,266.494812 477.1996765,266.5371094 476.8234863,266.5371094 C476.2902832,266.5371094 475.8237305,266.450592 475.4238281,266.2762756 C475.0239258,266.1019592 474.6906738,265.8545837 474.4240723,265.5328674 C474.1574707,265.211792 473.9575195,264.8272705 473.8242188,264.379303 C473.690918,263.9319763 473.6242676,263.4308167 473.6242676,262.8764648 L473.6242676,255.8833008 Z M494.6140137,260.2924805 C494.6140137,260.4642334 494.6088867,260.686615 494.5986328,260.9596252 C494.5883789,261.2332764 494.572998,261.489624 494.5524902,261.7280273 L487.7028809,261.7280273 C487.7028809,262.1868896 487.7733765,262.5899963 487.9130859,262.9386292 C488.0534363,263.287262 488.2514648,263.5794983 488.5078125,263.8153381 C488.7641602,264.051178 489.0717773,264.2306213 489.4306641,264.3536682 C489.7895508,264.4767151 490.1881714,264.5382385 490.6252441,264.5375977 C491.1315308,264.5382385 491.6730652,264.4991455 492.2504883,264.4203186 C492.8285522,264.3421326 493.4284058,264.2133179 494.0500488,264.0351563 L494.0500488,266.0244141 C493.7834473,266.1000366 493.4931335,266.1686096 493.1784668,266.2301331 C492.8644409,266.2916565 492.5427246,266.3461304 492.2145996,266.3935547 C491.8864746,266.4416199 491.5551453,266.4775085 491.2199707,266.5012207 C490.885437,266.5255737 490.5605164,266.5371094 490.2458496,266.5371094 C489.4530945,266.5371094 488.7423706,266.4249573 488.1130371,266.1993713 C487.4843445,265.9737854 486.9511414,265.6405334 486.5134277,265.1996155 C486.076355,264.7586975 485.7411804,264.2139587 485.5085449,263.5641174 C485.2765503,262.914917 485.1599121,262.1625366 485.1599121,261.3076172 C485.1599121,260.4603882 485.2765503,259.6900635 485.5085449,258.9960022 C485.7411804,258.3025818 486.0693054,257.7078552 486.4929199,257.2118225 C486.9171753,256.7164307 487.4311523,256.3338318 488.0361328,256.063385 C488.6411133,255.7935791 489.3165894,255.6583557 490.0612793,255.6577148 C490.7995605,255.6583557 491.4526062,255.7730713 492.0197754,256.0018616 C492.5875854,256.2312927 493.0624695,256.5504456 493.4450684,256.9606018 C493.8283081,257.3707581 494.1186218,257.8597412 494.3166504,258.4269104 C494.5153198,258.9947205 494.6140137,259.6163635 494.6140137,260.2924805 Z M492.0710449,259.9335938 C492.0780945,259.5240784 492.026825,259.1671143 491.9172363,258.8627014 C491.8082886,258.5589294 491.6596069,258.3077087 491.4711914,258.1090393 C491.2834167,257.9110107 491.0648804,257.7642517 490.8149414,257.6681213 C490.5656433,257.5726318 490.2971191,257.5245667 490.0100098,257.5239258 C489.3813171,257.5245667 488.8654175,257.7347717 488.4616699,258.1551819 C488.0585632,258.575592 487.819519,259.168396 487.7438965,259.9335938 Z" style="fill:rgb(255,255,255);stroke:none" clip-path="url(#clip6)" />
<clipPath id="clip7"><path d="M12,240 L118,240 L118,279 L12,279 L12,240 Z" /></clipPath>
<path d="M21,241 C16.5817261,241 13,244.5817261 13,249 L13,269 C13,273.4182739 16.5817261,277 21,277 L108,277 C112.4182739,277 116,273.4182739 116,269 L116,249 C116,244.5817261 112.4182739,241 108,241 Z" style="fill:rgb(85,142,213);stroke:none" clip-path="url(#clip7)" />
<clipPath id="clip8"><path d="M24,247 L106,247 L106,272 L24,272 L24,247 Z" /></clipPath>
<path d="M34.4760742,264.4804688 C33.9946289,264.6744995 33.5287476,264.8187256 33.0773926,264.9121094 C32.6265564,265.0065308 32.1575623,265.0532227 31.6704102,265.0532227 C30.8901367,265.0532227 30.2001343,264.9385681 29.5993652,264.709259 C28.999115,264.47995 28.4927673,264.1380615 28.0803223,263.6841125 C27.668396,263.2306824 27.3555603,262.6672668 27.142334,261.9949036 C26.9296265,261.3225403 26.8227539,260.5407104 26.8227539,259.6494141 C26.8227539,258.7368469 26.9389648,257.9249268 27.1713867,257.2136536 C27.4038086,256.5028992 27.7358398,255.9021301 28.1674805,255.412384 C28.5991211,254.9226379 29.1236267,254.5491028 29.7404785,254.2917786 C30.3578491,254.0344543 31.0509644,253.9057922 31.8198242,253.9052734 C32.0688477,253.9057922 32.3028259,253.911499 32.5212402,253.9223938 C32.7401733,253.9338074 32.9544373,253.9545593 33.1645508,253.9846497 C33.3751831,254.0152588 33.5878906,254.0552063 33.8037109,254.105011 C34.0195313,254.1548157 34.2436523,254.2186279 34.4760742,254.2954102 L34.4760742,256.3208008 C34.0060425,256.0997925 33.5578003,255.9425964 33.1313477,255.848175 C32.7054138,255.7542725 32.3178711,255.7070618 31.9692383,255.706543 C31.4545898,255.7070618 31.0146484,255.7999268 30.6494141,255.9851379 C30.2841797,256.1708679 29.984314,256.4307861 29.7487793,256.7654114 C29.5137634,257.1005554 29.3410034,257.4989929 29.2299805,257.9607239 C29.1194763,258.4229736 29.0639648,258.9303589 29.0639648,259.4833984 C29.0639648,260.0706787 29.1210327,260.5951843 29.2341309,261.0569153 C29.3477478,261.519165 29.5236206,261.9108582 29.7612305,262.2314758 C29.9993591,262.5526123 30.303894,262.7974854 30.6743164,262.966095 C31.0452576,263.1352234 31.485199,263.2192688 31.9941406,263.21875 C32.1767578,263.2192688 32.374939,263.2016296 32.5876465,263.1653137 C32.8008728,263.1295166 33.0166931,263.0823059 33.2351074,263.0242004 C33.4540405,262.966095 33.6698608,262.8970947 33.8825684,262.8166809 C34.0957947,262.7367859 34.293457,262.6548157 34.4760742,262.5712891 Z M44.5200195,260.6206055 C44.5200195,261.2851868 44.4261169,261.8927002 44.237793,262.4431458 C44.0499878,262.9941101 43.778656,263.4656982 43.4243164,263.858429 C43.0704956,264.2516785 42.6357422,264.5556946 42.1210938,264.7715149 C41.6064453,264.9873352 41.0202026,265.0947266 40.3613281,265.0947266 C39.7361755,265.0947266 39.1774292,265.0039368 38.6845703,264.8213196 C38.1922302,264.6387024 37.7745972,264.366333 37.4311523,264.0036926 C37.0882263,263.641571 36.8251953,263.1876221 36.6425781,262.6423645 C36.4599609,262.0976257 36.3686523,261.4620972 36.3686523,260.7368164 C36.3686523,260.0675659 36.4641113,259.4590149 36.6550293,258.9111633 C36.8459473,258.3633118 37.119873,257.895874 37.4768066,257.5083313 C37.8337402,257.1213074 38.2695313,256.8209229 38.7841797,256.6076965 C39.2988281,256.394989 39.8798828,256.2881165 40.5273438,256.2875977 C41.1582031,256.2881165 41.7200623,256.3809814 42.2124023,256.5661926 C42.7052612,256.7519226 43.1228943,257.026886 43.4658203,257.3921204 C43.8092651,257.7573547 44.0707397,258.2097473 44.2502441,258.7492981 C44.4302673,259.2888489 44.5200195,259.9129639 44.5200195,260.6206055 Z M42.4116211,260.6704102 C42.4116211,259.7967529 42.2471619,259.1394348 41.9177246,258.6994934 C41.5888062,258.259552 41.1032104,258.0395813 40.4609375,258.0390625 C40.1071167,258.0395813 39.8051758,258.1091003 39.5561523,258.2471008 C39.3071289,258.3856201 39.1027222,258.5749817 38.9418945,258.8157043 C38.7815857,259.056427 38.6638184,259.337616 38.5891113,259.6582336 C38.5144043,259.9793701 38.4770508,260.3222961 38.4770508,260.6870117 C38.4770508,261.5674133 38.65448,262.2304382 39.0083008,262.6755676 C39.3626404,263.1212158 39.8466797,263.3437805 40.4609375,263.3432617 C40.7986755,263.3437805 41.0917969,263.2763367 41.3408203,263.1404114 C41.5898438,263.0050049 41.7921753,262.8166809 41.9467773,262.5759583 C42.1018982,262.3352356 42.2181091,262.0519714 42.2954102,261.7251282 C42.37323,261.3988037 42.4116211,261.0470581 42.4116211,260.6704102 Z M51.5839844,264.9038086 L51.5839844,259.4086914 C51.5839844,258.4852295 51.2410583,258.0229797 50.5546875,258.0224609 C50.2117615,258.0229797 49.8838806,258.161499 49.5710449,258.4380188 C49.258728,258.7150574 48.9277344,259.0911865 48.5791016,259.5664063 L48.5791016,264.9038086 L46.5537109,264.9038086 L46.5537109,256.4702148 L48.3051758,256.4702148 L48.3549805,257.715332 C48.5267029,257.5000305 48.7051697,257.3039246 48.8903809,257.1264954 C49.0761108,256.949585 49.2763672,256.7986145 49.4921875,256.6741028 C49.7080078,256.5495911 49.9404297,256.4541321 50.1894531,256.3877258 C50.4384766,256.3213196 50.7181091,256.2881165 51.027832,256.2875977 C51.4594727,256.2881165 51.8361206,256.3586731 52.1567383,256.4997864 C52.4778748,256.6408997 52.7460938,256.8401184 52.9619141,257.0974426 C53.1777344,257.3547668 53.3395996,257.6650085 53.4475098,258.0271301 C53.5554199,258.3897705 53.609375,258.7949524 53.609375,259.2426758 L53.609375,264.9038086 Z M63.1386719,262.421875 C63.1386719,262.9038391 63.0323181,263.3147278 62.8190918,263.6550598 C62.6063843,263.9953918 62.3241577,264.2724304 61.9724121,264.4851379 C61.6211853,264.6983643 61.2227478,264.8529663 60.7770996,264.9494629 C60.3319702,265.0464783 59.8764648,265.0947266 59.4116211,265.0947266 C58.7921753,265.0947266 58.2329102,265.0656738 57.7348633,265.0075684 C57.2368164,264.9494629 56.7667847,264.8654175 56.3237305,264.7543945 L56.3237305,262.9282227 C56.8440857,263.1445618 57.3628845,263.301239 57.880127,263.3977356 C58.3978882,263.494751 58.8860779,263.5429993 59.3452148,263.5424805 C59.8764648,263.5429993 60.2738647,263.4589539 60.536377,263.2898254 C60.799408,263.1212158 60.9306641,262.9012451 60.9306641,262.6293945 C60.9306641,262.5028076 60.9031677,262.3865967 60.8476563,262.2812805 C60.7926636,262.1764832 60.6889038,262.0753174 60.536377,261.978302 C60.3843689,261.8818054 60.170105,261.782196 59.8930664,261.6794739 C59.6165466,261.5772705 59.2539063,261.4620972 58.8056641,261.3344727 C58.390625,261.2187805 58.026947,261.0875244 57.7141113,260.9407043 C57.4017944,260.7944031 57.1429138,260.6211243 56.9379883,260.4219055 C56.7335815,260.2226868 56.5800171,259.9918213 56.4772949,259.7287903 C56.3750916,259.4662781 56.3237305,259.1575928 56.3237305,258.8027344 C56.3237305,258.4603271 56.4015503,258.1365967 56.5561523,257.8320618 C56.7112732,257.5280457 56.9421387,257.2608643 57.2492676,257.0310364 C57.5563965,256.8017273 57.9397888,256.6201477 58.3989258,256.4873352 C58.8585815,256.3545227 59.3950195,256.2881165 60.0092773,256.2875977 C60.5405273,256.2881165 61.0110779,256.3161316 61.4204102,256.3711243 C61.8302612,256.4266357 62.1923828,256.4873352 62.5078125,256.5532227 L62.5078125,258.2050781 C62.0263672,258.0504761 61.5739746,257.9415283 61.1506348,257.8777161 C60.7272949,257.8144226 60.3081055,257.7822571 59.8930664,257.7817383 C59.4780273,257.7822571 59.1449585,257.8569641 58.8928223,258.0063782 C58.6412048,258.1557922 58.5151367,258.3633118 58.5151367,258.628418 C58.5151367,258.7560425 58.5400391,258.8696594 58.5898438,258.9692688 C58.6396484,259.0688782 58.7382202,259.1658936 58.8845215,259.2597961 C59.0313416,259.3542175 59.2362671,259.4522705 59.4987793,259.5544739 C59.7618103,259.657196 60.1088867,259.7687378 60.5405273,259.8901367 C61.0276794,260.0291748 61.4370117,260.1770325 61.769043,260.3347473 C62.1010742,260.4924622 62.3682556,260.670929 62.5700684,260.8701477 C62.7723999,261.0693665 62.9176636,261.2966003 63.0058594,261.5508118 C63.094574,261.805542 63.1386719,262.0960693 63.1386719,262.421875 Z M67.8203125,256.4702148 L67.8203125,261.965332 C67.8203125,262.4249878 67.9064331,262.772583 68.0776367,263.0075989 C68.2493591,263.2431335 68.5092773,263.3603821 68.8579102,263.3598633 C69.1956482,263.3603821 69.5209351,263.2208252 69.833252,262.9411926 C70.1460876,262.6620789 70.4765625,262.2838745 70.8251953,261.8076172 L70.8251953,256.4702148 L72.8505859,256.4702148 L72.8505859,264.9038086 L71.0991211,264.9038086 L71.0493164,263.6586914 C70.872406,263.8750305 70.6923828,264.0716553 70.5097656,264.2485657 C70.3271484,264.4259949 70.1294861,264.5764465 69.9162598,264.7009583 C69.7035522,264.82547 69.4711304,264.9219666 69.2189941,264.9909668 C68.9673767,265.0604858 68.6893005,265.0947266 68.3847656,265.0947266 C67.953125,265.0947266 67.5754395,265.0246887 67.251709,264.8835754 C66.9279785,264.7424622 66.6582031,264.5422058 66.4423828,264.2817688 C66.2265625,264.0218506 66.0646973,263.7105713 65.9567871,263.3479309 C65.848877,262.9858093 65.7949219,262.5801086 65.7949219,262.1313477 L65.7949219,256.4702148 Z M81.3920898,264.9038086 L81.3920898,259.159668 C81.3920898,258.9500732 81.3869019,258.7658997 81.3754883,258.6081848 C81.3645935,258.45047 81.3422852,258.3192139 81.309082,258.2138977 C81.2758789,258.1091003 81.2276306,258.0302429 81.1638184,257.9773254 C81.1005249,257.9249268 81.0133667,257.898468 80.9023438,257.8979492 C80.7311401,257.898468 80.5620117,258.014679 80.3959961,258.2471008 C80.2299805,258.4795227 80.0421753,258.8753662 79.831543,259.4335938 L79.831543,264.9038086 L78.0966797,264.9038086 L78.0966797,259.159668 C78.0966797,258.9500732 78.0914917,258.7658997 78.0800781,258.6081848 C78.0691833,258.45047 78.046875,258.3192139 78.0136719,258.2138977 C77.9804688,258.1091003 77.9306641,258.0302429 77.8642578,257.9773254 C77.7978516,257.9249268 77.7096558,257.898468 77.5986328,257.8979492 C77.4549255,257.898468 77.2946167,258.014679 77.1171875,258.2471008 C76.9402771,258.4795227 76.7436523,258.8753662 76.527832,259.4335938 L76.527832,264.9038086 L74.7763672,264.9038086 L74.7763672,256.4702148 L76.2788086,256.4702148 L76.3120117,257.6987305 C76.4339294,257.4502258 76.5558472,257.2375183 76.6772461,257.0600891 C76.7991638,256.8831787 76.9293823,256.737915 77.0673828,256.6242981 C77.2059021,256.5112 77.3537598,256.4292297 77.5114746,256.379425 C77.6691895,256.3296204 77.8476563,256.304718 78.046875,256.3041992 C78.5174255,256.304718 78.8759155,256.4281921 79.1218262,256.6741028 C79.3682556,256.9205322 79.5078125,257.2619019 79.5410156,257.6987305 C79.6738281,257.4502258 79.805603,257.2375183 79.9353027,257.0600891 C80.0655212,256.8831787 80.2009277,256.737915 80.342041,256.6242981 C80.4831543,256.5112 80.6356812,256.4292297 80.798584,256.379425 C80.9620056,256.3296204 81.1430664,256.304718 81.3422852,256.3041992 C81.956543,256.304718 82.4104919,256.5195007 82.7036133,256.9480286 C82.9972534,257.3770752 83.1435547,258.012085 83.1435547,258.8525391 L83.1435547,264.9038086 Z M92.4155273,260.0395508 C92.4155273,260.1785889 92.411377,260.3586121 92.4030762,260.5796204 C92.3947754,260.8011475 92.3823242,261.008667 92.3657227,261.2016602 L86.8208008,261.2016602 C86.8208008,261.5731201 86.8778687,261.8994446 86.9909668,262.1816711 C87.1045837,262.4638977 87.2648926,262.70047 87.4724121,262.8913879 C87.6799316,263.0823059 87.9289551,263.2275696 88.2194824,263.327179 C88.5100098,263.4267883 88.8327026,263.476593 89.1865234,263.4760742 C89.5963745,263.476593 90.0347595,263.4449463 90.5021973,263.381134 C90.9701538,263.3178406 91.4557495,263.213562 91.9589844,263.0693359 L91.9589844,264.6796875 C91.7431641,264.7409058 91.5081482,264.7964172 91.253418,264.8462219 C90.9992065,264.8960266 90.7387695,264.9401245 90.4731445,264.9785156 C90.2075195,265.0174255 89.9393005,265.0464783 89.6679688,265.0656738 C89.3971558,265.0853882 89.1341248,265.0947266 88.8793945,265.0947266 C88.2376404,265.0947266 87.6622925,265.0039368 87.152832,264.8213196 C86.6438904,264.6387024 86.2122498,264.368927 85.8579102,264.0119934 C85.5040894,263.6550598 85.2327576,263.2140808 85.0444336,262.6880188 C84.8566284,262.1624756 84.762207,261.5534058 84.762207,260.8613281 C84.762207,260.1754761 84.8566284,259.5518799 85.0444336,258.9900208 C85.2327576,258.4286804 85.4983826,257.9472351 85.8413086,257.5456848 C86.1847534,257.1446533 86.6008301,256.8349304 87.0905762,256.6159973 C87.5803223,256.397583 88.1271362,256.2881165 88.7299805,256.2875977 C89.3276367,256.2881165 89.8562927,256.3809814 90.3154297,256.5661926 C90.7750854,256.7519226 91.1595154,257.0102844 91.4692383,257.3423157 C91.77948,257.6743469 92.0144958,258.0701904 92.1748047,258.5293274 C92.3356323,258.9889832 92.4155273,259.492218 92.4155273,260.0395508 Z M90.3569336,259.7490234 C90.3626404,259.417511 90.3211365,259.12854 90.2324219,258.8821106 C90.1442261,258.6362 90.0238647,258.4328308 89.8713379,258.2720032 C89.7193298,258.1116943 89.5424194,257.9928894 89.3400879,257.9150696 C89.1382751,257.8377686 88.9208984,257.7988586 88.6884766,257.7983398 C88.1795349,257.7988586 87.7619019,257.9690247 87.4350586,258.3093567 C87.1087341,258.6496887 86.9152222,259.1295776 86.8540039,259.7490234 Z M100.1269531,259.7490234 C100.1383667,259.4341125 100.1228027,259.1658936 100.0812988,258.9443665 C100.0397949,258.7233582 99.9733887,258.540741 99.8820801,258.3965149 C99.7907715,258.2528076 99.6787109,258.1474915 99.5458984,258.0810852 C99.4130859,258.014679 99.2610779,257.9814758 99.0893555,257.980957 C98.7905273,257.9814758 98.4823608,258.10495 98.1638184,258.3508606 C97.8457947,258.59729 97.4956055,259.0024719 97.1137695,259.5664063 L97.1137695,264.9038086 L95.0385742,264.9038086 L95.0385742,256.4702148 L96.8730469,256.4702148 L96.9477539,257.6987305 C97.0862732,257.483429 97.2424316,257.289917 97.416748,257.1181946 C97.5910645,256.946991 97.7850952,256.7986145 97.9978027,256.6741028 C98.2110291,256.5495911 98.4476013,256.4541321 98.7075195,256.3877258 C98.9679565,256.3213196 99.2527771,256.2881165 99.5625,256.2875977 C99.9889526,256.2881165 100.3666382,256.3617859 100.6955566,256.5080872 C101.0249939,256.6549072 101.3015137,256.8722839 101.5256348,257.1596985 C101.7497559,257.4476318 101.9157715,257.8087158 102.0236816,258.2429504 C102.1315918,258.6777039 102.1772461,259.1793823 102.1606445,259.7490234 Z" style="fill:rgb(255,255,255);stroke:none" clip-path="url(#clip8)" />
<clipPath id="clip9"><path d="M760,244 L865,244 L865,283 L760,283 L760,244 Z" /></clipPath>
<path d="M769,245 C764.5817261,245 761,248.5817261 761,253 L761,273 C761,277.4182739 764.5817261,281 769,281 L855,281 C859.4182739,281 863,277.4182739 863,273 L863,253 C863,248.5817261 859.4182739,245 855,245 Z" style="fill:rgb(85,142,213);stroke:none" clip-path="url(#clip9)" />
<clipPath id="clip10"><path d="M772,251 L853,251 L853,276 L772,276 L772,251 Z" /></clipPath>
<path d="M782.1462402,263.3505859 C782.1462402,264.1256714 782.0372925,264.7954407 781.8183594,265.3598938 C781.5999756,265.9243469 781.2954102,266.3933411 780.9052734,266.7668762 C780.5151367,267.1404114 780.0544434,267.41745 779.5231934,267.5969543 C778.9919434,267.7764587 778.4140015,267.8662109 777.7883301,267.8662109 C777.5782471,267.8662109 777.368103,267.8527222 777.1574707,267.824707 C776.9473877,267.7972107 776.7564697,267.7614136 776.5847168,267.7167969 L776.5847168,271.012207 L774.5593262,271.012207 L774.5593262,259.2832031 L776.310791,259.2832031 L776.3605957,260.5283203 C776.5323486,260.3130188 776.7108154,260.1169128 776.8959961,259.9394836 C777.0817261,259.7625732 777.2819824,259.6116028 777.4978027,259.4870911 C777.713623,259.3625793 777.9460449,259.2671204 778.1950684,259.2007141 C778.4440918,259.1343079 778.7237549,259.1011047 779.0334473,259.1005859 C779.5314941,259.1011047 779.9745483,259.2007141 780.3615723,259.3999329 C780.7491455,259.5991516 781.0744019,259.8829346 781.3369141,260.2507629 C781.5999756,260.6191101 781.8007202,261.0642395 781.9387207,261.5871887 C782.0772705,262.1101379 782.1462402,262.697937 782.1462402,263.3505859 Z M780.0212402,263.4335938 C780.0212402,262.9692688 779.9880371,262.5739441 779.9216309,262.2471008 C779.8552246,261.9207764 779.7597656,261.6525574 779.6352539,261.441925 C779.5107422,261.2318115 779.3587646,261.0782471 779.1787109,260.9812317 C778.9992065,260.8847351 778.7927246,260.835968 778.5603027,260.8354492 C778.2174072,260.835968 777.8895264,260.9744873 777.5766602,261.2510071 C777.2643433,261.5280457 776.9333496,261.9041748 776.5847168,262.3793945 L776.5847168,266.0649414 C776.7455444,266.1261597 776.9432373,266.1764832 777.1782227,266.2148743 C777.4137573,266.2537842 777.6529541,266.2729797 777.8962402,266.2724609 C778.2174072,266.2729797 778.5094604,266.2065735 778.7719727,266.073761 C779.0350342,265.9409485 779.2591553,265.7531433 779.4443359,265.5093079 C779.6300659,265.2659912 779.7722168,264.9687195 779.8718262,264.6169739 C779.9714355,264.2657471 780.0212402,263.87146 780.0212402,263.4335938 Z M789.6169434,262.5620117 C789.6283569,262.2471008 789.612793,261.9788818 789.5712891,261.7573547 C789.5297852,261.5363464 789.4633789,261.3537292 789.3720703,261.2095032 C789.2807617,261.0657959 789.1687012,260.9604797 789.0358887,260.8940735 C788.9030762,260.8276672 788.7510986,260.7944641 788.5793457,260.7939453 C788.2805176,260.7944641 787.9723511,260.9179382 787.6538086,261.1638489 C787.3358154,261.4102783 786.9855957,261.8154602 786.6037598,262.3793945 L786.6037598,267.7167969 L784.5285645,267.7167969 L784.5285645,259.2832031 L786.3630371,259.2832031 L786.4377441,260.5117188 C786.5762939,260.2964172 786.7324219,260.1029053 786.9067383,259.9311829 C787.0810547,259.7599792 787.2750854,259.6116028 787.487793,259.4870911 C787.7010498,259.3625793 787.9376221,259.2671204 788.1975098,259.2007141 C788.4579468,259.1343079 788.7427979,259.1011047 789.0524902,259.1005859 C789.4789429,259.1011047 789.8566284,259.1747742 790.1855469,259.3210754 C790.5150146,259.4678955 790.7915039,259.6852722 791.015625,259.9726868 C791.2397461,260.2606201 791.4057617,260.6217041 791.5136719,261.0559387 C791.621582,261.4906921 791.6672363,261.9923706 791.6506348,262.5620117 Z M801.4123535,263.4335938 C801.4123535,264.098175 801.3184814,264.7056885 801.130127,265.256134 C800.9423218,265.8070984 800.6710205,266.2786865 800.3166504,266.6714172 C799.9628296,267.0646667 799.5280762,267.3686829 799.0134277,267.5845032 C798.4987793,267.8003235 797.9125366,267.9077148 797.2536621,267.9077148 C796.62854,267.9077148 796.0697632,267.816925 795.5769043,267.6343079 C795.0845947,267.4516907 794.6669312,267.1793213 794.3234863,266.8166809 C793.9805908,266.4545593 793.7175293,266.0006104 793.5349121,265.4553528 C793.3522949,264.910614 793.2609863,264.2750854 793.2609863,263.5498047 C793.2609863,262.8805542 793.3564453,262.2720032 793.5473633,261.7241516 C793.7382813,261.1763 794.012207,260.7088623 794.3691406,260.3213196 C794.7260742,259.9342957 795.1618652,259.6339111 795.6765137,259.4206848 C796.1911621,259.2079773 796.7722168,259.1011047 797.4196777,259.1005859 C798.0505371,259.1011047 798.6124268,259.1939697 799.1047363,259.3791809 C799.5975952,259.5649109 800.0152588,259.8398743 800.3581543,260.2051086 C800.7015991,260.570343 800.9630737,261.0227356 801.1425781,261.5622864 C801.3226318,262.1018372 801.4123535,262.7259521 801.4123535,263.4335938 Z M799.3039551,263.4833984 C799.3039551,262.6097412 799.1395264,261.9524231 798.8100586,261.5124817 C798.4811401,261.0725403 797.9955444,260.8525696 797.3532715,260.8520508 C796.9994507,260.8525696 796.6975098,260.9220886 796.4484863,261.0600891 C796.1994629,261.1986084 795.9950562,261.38797 795.8342285,261.6286926 C795.6739502,261.8694153 795.5561523,262.1506042 795.4814453,262.4712219 C795.4067383,262.7923584 795.3693848,263.1352844 795.3693848,263.5 C795.3693848,264.3804016 795.546814,265.0434265 795.9006348,265.4885559 C796.2550049,265.9342041 796.7390137,266.1567688 797.3532715,266.15625 C797.69104,266.1567688 797.9841309,266.089325 798.2331543,265.9533997 C798.4821777,265.8179932 798.6845093,265.6296692 798.8391113,265.3889465 C798.9942627,265.1482239 799.1104736,264.8649597 799.1877441,264.5381165 C799.265564,264.211792 799.3039551,263.8600464 799.3039551,263.4833984 Z M808.7502441,267.7167969 L808.7004395,266.4716797 C808.5235596,266.6880188 808.3409424,266.8846436 808.1525879,267.061554 C807.9647827,267.2389832 807.7624512,267.3894348 807.5466309,267.5139465 C807.3308105,267.6384583 807.0999756,267.7349548 806.8535156,267.8039551 C806.607605,267.8734741 806.3347168,267.9077148 806.0358887,267.9077148 C805.5378418,267.9077148 805.0953369,267.8086243 804.7077637,267.6094055 C804.3207397,267.4101868 803.9954834,267.1269226 803.7324219,266.7585754 C803.4699097,266.3907471 803.269165,265.9440613 803.1306152,265.4179993 C802.9926147,264.8924561 802.9230957,264.3056946 802.9230957,263.6577148 C802.9230957,262.883667 803.0325928,262.2128601 803.2509766,261.6452942 C803.4699097,261.0782471 803.7728882,260.6076965 804.1599121,260.2341614 C804.5474854,259.8606262 805.0065918,259.5841064 805.5378418,259.4040833 C806.0690918,259.2245789 806.647583,259.1343079 807.2727051,259.1337891 C807.4833374,259.1343079 807.6950073,259.1483154 807.9077148,259.1758118 C808.1209717,259.2038269 808.3103027,259.239624 808.4763184,259.2832031 L808.4763184,255.987793 L810.501709,255.987793 L810.501709,267.7167969 Z M805.0480957,263.5664063 C805.0480957,264.0317688 805.0802612,264.4291687 805.1435547,264.7580872 C805.2073975,265.0875244 805.3012695,265.3572998 805.4257813,265.5674133 C805.550293,265.7780457 805.7038574,265.9316101 805.8864746,266.0281067 C806.0690918,266.1251221 806.2766113,266.1733704 806.5090332,266.1728516 C806.852478,266.1733704 807.178833,266.0353699 807.4885254,265.7583313 C807.7987671,265.4818115 808.1276855,265.1025696 808.4763184,264.6206055 L808.4763184,260.9350586 C808.31604,260.8748779 808.1183472,260.8250732 807.8828125,260.7861633 C807.6478271,260.7477722 807.4112549,260.7280579 807.1730957,260.7275391 C806.8468018,260.7280579 806.5536499,260.7944641 806.2932129,260.9272766 C806.0333252,261.0600891 805.81073,261.2484131 805.625,261.4917297 C805.4398193,261.7355652 805.2971191,262.0328369 805.1975098,262.3840637 C805.0979004,262.7358093 805.0480957,263.1295776 805.0480957,263.5664063 Z M815.0837402,259.2832031 L815.0837402,264.7783203 C815.0837402,265.2379761 815.1698608,265.5855713 815.3410645,265.8205872 C815.5128174,266.0561218 815.7727051,266.1733704 816.1213379,266.1728516 C816.4591064,266.1733704 816.7843628,266.0338135 817.0966797,265.7541809 C817.4095459,265.4750671 817.7399902,265.0968628 818.088623,264.6206055 L818.088623,259.2832031 L820.1140137,259.2832031 L820.1140137,267.7167969 L818.3625488,267.7167969 L818.3127441,266.4716797 C818.1358643,266.6880188 817.9558105,266.8846436 817.7731934,267.061554 C817.5905762,267.2389832 817.3929443,267.3894348 817.1796875,267.5139465 C816.96698,267.6384583 816.7345581,267.7349548 816.4824219,267.8039551 C816.230835,267.8734741 815.9527588,267.9077148 815.6481934,267.9077148 C815.2165527,267.9077148 814.8388672,267.837677 814.5151367,267.6965637 C814.1914063,267.5554504 813.9216309,267.3551941 813.7058105,267.0947571 C813.4899902,266.8348389 813.328125,266.5235596 813.2202148,266.1609192 C813.1123047,265.7987976 813.0583496,265.3930969 813.0583496,264.9443359 L813.0583496,259.2832031 Z M829.5270996,267.3930664 C829.1286621,267.553894 828.7167358,267.6732178 828.2902832,267.75 C827.8643799,267.8278198 827.4187012,267.8662109 826.9538574,267.8662109 C826.2846069,267.8662109 825.6838379,267.7754211 825.1525879,267.592804 C824.6213379,267.4101868 824.1705322,267.1393738 823.7995605,266.7793274 C823.4291382,266.4197998 823.1453857,265.9741516 822.9487305,265.4429016 C822.7526245,264.9116516 822.6540527,264.2973938 822.6540527,263.5996094 C822.6540527,262.9251709 822.7609253,262.3135071 822.9736328,261.7656555 C823.1868896,261.217804 823.4872437,260.7503662 823.8742676,260.3628235 C824.2618408,259.9757996 824.7282104,259.6769714 825.2729492,259.4663391 C825.8182373,259.2562256 826.4257202,259.1509094 827.0949707,259.1503906 C827.6428223,259.1509094 828.1035156,259.1799622 828.4770508,259.2380676 C828.8505859,259.2961731 829.1867676,259.3693237 829.4855957,259.4575195 L829.4855957,261.4248047 C829.1427002,261.2536011 828.7706909,261.1213074 828.3691406,261.026886 C827.9681396,260.9329834 827.5878296,260.8857727 827.2277832,260.8852539 C826.8516846,260.8857727 826.513916,260.949585 826.2150879,261.0766907 C825.9162598,261.2043152 825.6646729,261.3812256 825.4597168,261.6079407 C825.2553101,261.8351746 825.0986328,262.1101379 824.9907227,262.4338684 C824.8828125,262.7575989 824.8288574,263.1129761 824.8288574,263.5 C824.8288574,263.9046631 824.8869629,264.2673035 825.0031738,264.5879211 C825.1193848,264.9090576 825.2843628,265.181427 825.4970703,265.4055481 C825.7103271,265.6296692 825.9660645,265.8013916 826.2648926,265.9201965 C826.5637207,266.0395203 826.895752,266.0986633 827.2609863,266.0981445 C827.4384155,266.0986633 827.6251831,266.0862122 827.8212891,266.0613098 C828.0179443,266.0364075 828.2145386,266.0006104 828.4106445,265.9533997 C828.6072998,265.9067078 828.8007813,265.8527527 828.9916992,265.7915344 C829.1826172,265.730835 829.361084,265.6644287 829.5270996,265.5917969 Z M839.6789551,262.8525391 C839.6789551,262.9915771 839.6748047,263.1716003 839.6665039,263.3926086 C839.6582031,263.6141357 839.645752,263.8216553 839.6291504,264.0146484 L834.0842285,264.0146484 C834.0842285,264.3861084 834.1412964,264.7124329 834.2543945,264.9946594 C834.368042,265.276886 834.5283203,265.5134583 834.7358398,265.7043762 C834.9433594,265.8952942 835.1923828,266.0405579 835.4829102,266.1401672 C835.7734375,266.2397766 836.0961304,266.2895813 836.4499512,266.2890625 C836.8598022,266.2895813 837.2982178,266.2579346 837.765625,266.1941223 C838.2335815,266.1308289 838.7191772,266.0265503 839.2224121,265.8823242 L839.2224121,267.4926758 C839.0065918,267.553894 838.7716064,267.6094055 838.5168457,267.6592102 C838.2626343,267.7090149 838.0021973,267.7531128 837.7365723,267.7915039 C837.4709473,267.8304138 837.2027588,267.8594666 836.9313965,267.8786621 C836.6605835,267.8983765 836.397583,267.9077148 836.1428223,267.9077148 C835.5010986,267.9077148 834.9257202,267.816925 834.4162598,267.6343079 C833.9073486,267.4516907 833.475708,267.1819153 833.1213379,266.8249817 C832.7675171,266.4680481 832.4962158,266.0270691 832.3078613,265.5010071 C832.1200562,264.9754639 832.0256348,264.366394 832.0256348,263.6743164 C832.0256348,262.9884644 832.1200562,262.3648682 832.3078613,261.803009 C832.4962158,261.2416687 832.7618408,260.7602234 833.1047363,260.3586731 C833.4481812,259.9576416 833.8642578,259.6479187 834.3540039,259.4289856 C834.84375,259.2105713 835.390564,259.1011047 835.9934082,259.1005859 C836.5910645,259.1011047 837.119751,259.1939697 837.5788574,259.3791809 C838.0385132,259.5649109 838.4229736,259.8232727 838.732666,260.155304 C839.0429077,260.4873352 839.2779541,260.8831787 839.4382324,261.3423157 C839.5990601,261.8019714 839.6789551,262.3052063 839.6789551,262.8525391 Z M837.6203613,262.5620117 C837.6260986,262.2304993 837.5845947,261.9415283 837.4958496,261.6950989 C837.4076538,261.4491882 837.2872925,261.2458191 837.1347656,261.0849915 C836.9827881,260.9246826 836.8058472,260.8058777 836.6035156,260.7280579 C836.4017334,260.6507568 836.1843262,260.6118469 835.9519043,260.6113281 C835.4429932,260.6118469 835.0253296,260.7820129 834.6984863,261.122345 C834.3721924,261.462677 834.1786499,261.9425659 834.1174316,262.5620117 Z M847.3903809,262.5620117 C847.4017944,262.2471008 847.3862305,261.9788818 847.3447266,261.7573547 C847.3032227,261.5363464 847.2368164,261.3537292 847.1455078,261.2095032 C847.0541992,261.0657959 846.9421387,260.9604797 846.8093262,260.8940735 C846.6765137,260.8276672 846.5245361,260.7944641 846.3527832,260.7939453 C846.0539551,260.7944641 845.7457886,260.9179382 845.4272461,261.1638489 C845.1092529,261.4102783 844.7590332,261.8154602 844.3771973,262.3793945 L844.3771973,267.7167969 L842.302002,267.7167969 L842.302002,259.2832031 L844.1364746,259.2832031 L844.2111816,260.5117188 C844.3497314,260.2964172 844.5058594,260.1029053 844.6801758,259.9311829 C844.8544922,259.7599792 845.0485229,259.6116028 845.2612305,259.4870911 C845.4744873,259.3625793 845.7110596,259.2671204 845.9709473,259.2007141 C846.2313843,259.1343079 846.5162354,259.1011047 846.8259277,259.1005859 C847.2523804,259.1011047 847.6300659,259.1747742 847.9589844,259.3210754 C848.2884521,259.4678955 848.5649414,259.6852722 848.7890625,259.9726868 C849.0131836,260.2606201 849.1791992,260.6217041 849.2871094,261.0559387 C849.3950195,261.4906921 849.4406738,261.9923706 849.4240723,262.5620117 Z" style="fill:rgb(255,255,255);stroke:none" clip-path="url(#clip10)" />
<clipPath id="clip11"><path d="M398,446 L456,446 L456,485 L398,485 L398,446 Z" /></clipPath>
<path d="M407,447 C402.5817261,447 399,450.5817261 399,455 L399,475 C399,479.4182739 402.5817261,483 407,483 L446,483 C450.4182739,483 454,479.4182739 454,475 L454,455 C454,450.5817261 450.4182739,447 446,447 Z" style="fill:rgb(85,142,213);stroke:none" clip-path="url(#clip11)" />
<clipPath id="clip12"><path d="M410,453 L444,453 L444,478 L410,478 L410,453 Z" /></clipPath>
<path d="M420.2785645,468.4882813 C420.2785645,468.9702454 420.1722107,469.381134 419.9589844,469.7214661 C419.7462769,470.0617981 419.4640503,470.3388367 419.1123047,470.5515442 C418.7610779,470.7647705 418.3626404,470.9193726 417.9169922,471.0158691 C417.4718628,471.1128845 417.0163574,471.1611328 416.5515137,471.1611328 C415.9320679,471.1611328 415.3728027,471.1320801 414.8747559,471.0739746 C414.376709,471.0158691 413.9066772,470.9318237 413.463623,470.8208008 L413.463623,468.9946289 C413.9839783,469.210968 414.5027771,469.3676453 415.0200195,469.4641418 C415.5377808,469.5611572 416.0259705,469.6094055 416.4851074,469.6088867 C417.0163574,469.6094055 417.4137573,469.5253601 417.6762695,469.3562317 C417.9393005,469.1876221 418.0705566,468.9676514 418.0705566,468.6958008 C418.0705566,468.5692139 418.0430603,468.4530029 417.9875488,468.3476868 C417.9325562,468.2428894 417.8287964,468.1417236 417.6762695,468.0447083 C417.5242615,467.9482117 417.3099976,467.8486023 417.032959,467.7458801 C416.7564392,467.6436768 416.3937988,467.5285034 415.9455566,467.4008789 C415.5305176,467.2851868 415.1668396,467.1539307 414.8540039,467.0071106 C414.541687,466.8608093 414.2828064,466.6875305 414.0778809,466.4883118 C413.8734741,466.289093 413.7199097,466.0582275 413.6171875,465.7951965 C413.5149841,465.5326843 413.463623,465.223999 413.463623,464.8691406 C413.463623,464.5267334 413.5414429,464.2030029 413.6960449,463.898468 C413.8511658,463.5944519 414.0820313,463.3272705 414.3891602,463.0974426 C414.6962891,462.8681335 415.0796814,462.686554 415.5388184,462.5537415 C415.9984741,462.420929 416.5349121,462.3545227 417.1491699,462.3540039 C417.6804199,462.3545227 418.1509705,462.3825378 418.5603027,462.4375305 C418.9701538,462.493042 419.3322754,462.5537415 419.6477051,462.6196289 L419.6477051,464.2714844 C419.1662598,464.1168823 418.7138672,464.0079346 418.2905273,463.9441223 C417.8671875,463.8808289 417.447998,463.8486633 417.032959,463.8481445 C416.6179199,463.8486633 416.2848511,463.9233704 416.0327148,464.0727844 C415.7810974,464.2221985 415.6550293,464.429718 415.6550293,464.6948242 C415.6550293,464.8224487 415.6799316,464.9360657 415.7297363,465.035675 C415.779541,465.1352844 415.8781128,465.2322998 416.0244141,465.3262024 C416.1712341,465.4206238 416.3761597,465.5186768 416.6386719,465.6208801 C416.9017029,465.7236023 417.2487793,465.835144 417.6804199,465.956543 C418.167572,466.0955811 418.5769043,466.2434387 418.9089355,466.4011536 C419.2409668,466.5588684 419.5081482,466.7373352 419.7099609,466.936554 C419.9122925,467.1357727 420.0575562,467.3630066 420.145752,467.617218 C420.2344666,467.8719482 420.2785645,468.1624756 420.2785645,468.4882813 Z M430.2976074,466.105957 C430.2976074,466.2449951 430.293457,466.4250183 430.2851563,466.6460266 C430.2768555,466.8675537 430.2644043,467.0750732 430.2478027,467.2680664 L424.7028809,467.2680664 C424.7028809,467.6395264 424.7599487,467.9658508 424.8730469,468.2480774 C424.9866638,468.530304 425.1469727,468.7668762 425.3544922,468.9577942 C425.5620117,469.1487122 425.8110352,469.2939758 426.1015625,469.3935852 C426.3920898,469.4931946 426.7147827,469.5429993 427.0686035,469.5424805 C427.4784546,469.5429993 427.9168396,469.5113525 428.3842773,469.4475403 C428.8522339,469.3842468 429.3378296,469.2799683 429.8410645,469.1357422 L429.8410645,470.7460938 C429.6252441,470.807312 429.3902283,470.8628235 429.135498,470.9126282 C428.8812866,470.9624329 428.6208496,471.0065308 428.3552246,471.0449219 C428.0895996,471.0838318 427.8213806,471.1128845 427.5500488,471.1320801 C427.2792358,471.1517944 427.0162048,471.1611328 426.7614746,471.1611328 C426.1197205,471.1611328 425.5443726,471.070343 425.0349121,470.8877258 C424.5259705,470.7051086 424.0943298,470.4353333 423.7399902,470.0783997 C423.3861694,469.7214661 423.1148376,469.2804871 422.9265137,468.754425 C422.7387085,468.2288818 422.6442871,467.619812 422.6442871,466.9277344 C422.6442871,466.2418823 422.7387085,465.6182861 422.9265137,465.056427 C423.1148376,464.4950867 423.3804626,464.0136414 423.7233887,463.6120911 C424.0668335,463.2110596 424.4829102,462.9013367 424.9726563,462.6824036 C425.4624023,462.4639893 426.0092163,462.3545227 426.6120605,462.3540039 C427.2097168,462.3545227 427.7383728,462.4473877 428.1975098,462.6325989 C428.6571655,462.8183289 429.0415955,463.0766907 429.3513184,463.4087219 C429.6615601,463.7407532 429.8965759,464.1365967 430.0568848,464.5957336 C430.2177124,465.0553894 430.2976074,465.5586243 430.2976074,466.105957 Z M428.2390137,465.8154297 C428.2447205,465.4839172 428.2032166,465.1949463 428.114502,464.9485168 C428.0263062,464.7026062 427.9059448,464.4992371 427.753418,464.3384094 C427.6014099,464.1781006 427.4244995,464.0592957 427.222168,463.9814758 C427.0203552,463.9041748 426.8029785,463.8652649 426.5705566,463.8647461 C426.061615,463.8652649 425.6439819,464.0354309 425.3171387,464.3757629 C424.9908142,464.716095 424.7973022,465.1959839 424.736084,465.8154297 Z M439.536377,470.887207 C439.1711426,470.9702148 438.8033142,471.0366211 438.432373,471.0864258 C438.0619507,471.1362305 437.7102051,471.1611328 437.3781738,471.1611328 C436.8251343,471.1611328 436.3478394,471.1030273 435.9462891,470.9868164 C435.5452576,470.8711243 435.2132263,470.6942139 434.9501953,470.4560852 C434.6876831,470.2184753 434.4936523,469.9154968 434.3691406,469.5471497 C434.2446289,469.1793213 434.182373,468.7404175 434.182373,468.230957 L434.182373,464.1137695 L431.9162598,464.1137695 L431.9162598,462.5366211 L434.182373,462.5366211 L434.182373,460.378418 L436.2575684,459.8388672 L436.2575684,462.5366211 L439.536377,462.5366211 L439.536377,464.1137695 L436.2575684,464.1137695 L436.2575684,468.081543 C436.2575684,468.5635071 436.3685913,468.9277039 436.5895996,469.1736145 C436.8111267,469.4200439 437.1820679,469.5429993 437.7019043,469.5424805 C438.0339355,469.5429993 438.357666,469.5155029 438.6730957,469.4599915 C438.9885254,469.4049988 439.2764587,469.3411865 439.536377,469.2685547 Z" style="fill:rgb(255,255,255);stroke:none" clip-path="url(#clip12)" />
<clipPath id="clip13"><path d="M398,490 L456,490 L456,529 L398,529 L398,490 Z" /></clipPath>
<path d="M407,491 C402.5817261,491 399,494.5817261 399,499 L399,519 C399,523.4182739 402.5817261,527 407,527 L446,527 C450.4182739,527 454,523.4182739 454,519 L454,499 C454,494.5817261 450.4182739,491 446,491 Z" style="fill:rgb(85,142,213);stroke:none" clip-path="url(#clip13)" />
<clipPath id="clip14"><path d="M410,497 L444,497 L444,522 L410,522 L410,497 Z" /></clipPath>
<path d="M419.9797363,506.3664551 C420.1348572,506.5604858 420.2443237,506.7643738 420.3076172,506.9770813 C420.3714294,507.1903076 420.4030762,507.4071655 420.4030762,507.6281738 C420.4030762,508.0992432 420.3216248,508.5142822 420.1582031,508.8738098 C419.9953003,509.2338562 419.7654724,509.5352783 419.4692383,509.778595 C419.1735229,510.0224304 418.8191833,510.2060852 418.4067383,510.3305969 C417.994812,510.4551086 417.5393066,510.5173645 417.0412598,510.5168457 C416.7481384,510.5173645 416.4768066,510.4883118 416.2277832,510.4302063 C415.9787598,510.3721008 415.7909546,510.3041382 415.6633301,510.2263184 C415.5694275,510.3207397 415.4890137,510.4250183 415.4226074,510.5381165 C415.3562012,510.6517334 415.322998,510.7803955 415.322998,510.923584 C415.322998,511.0128174 415.3453064,511.101532 415.3894043,511.1897278 C415.434021,511.2784424 415.4988708,511.3572998 415.5844727,511.4263 C415.6705933,511.4958191 415.7727966,511.5523682 415.8916016,511.5964661 C416.0109253,511.6410828 416.1447754,511.6654663 416.2941895,511.6706543 L418.2946777,511.7453613 C418.7429199,511.7567749 419.1486206,511.8138428 419.5107422,511.9160461 C419.8733826,512.0187988 420.1846619,512.1640625 420.4445801,512.3518066 C420.7050171,512.5401611 420.9052734,512.7684326 421.0463867,513.0366211 C421.1875,513.3054199 421.2580566,513.6104736 421.2580566,513.9533691 C421.2580566,514.3466187 421.1698608,514.717041 420.9924316,515.0656738 C420.8155212,515.4143066 420.5483398,515.7172852 420.1914063,515.9746094 C419.8344727,516.2319336 419.3903809,516.4353027 418.8591309,516.5847168 C418.3278809,516.7341309 417.7110291,516.8088379 417.0080566,516.8088379 C416.3273926,516.8088379 415.7421875,516.7548828 415.2524414,516.6469727 C414.7626953,516.5390625 414.3616638,516.3886108 414.0488281,516.1945801 C413.7365112,516.0010986 413.505127,515.7702026 413.3557129,515.5014648 C413.2062988,515.2332764 413.1315918,514.9385986 413.1315918,514.6174316 C413.1315918,514.4239502 413.1564941,514.2438965 413.2062988,514.0778809 C413.2561035,513.9118652 413.3308105,513.7531128 413.4304199,513.6005859 C413.5300293,513.4486084 413.654541,513.3012695 413.8039551,513.1569824 C413.9533691,513.0133057 414.1307983,512.8690796 414.3352051,512.7248535 C414.0643921,512.5702515 413.8579102,512.371582 413.7167969,512.1276855 C413.5756836,511.8843994 413.505127,511.6239624 413.505127,511.3469238 C413.505127,511.1591187 413.5300293,510.9837646 413.579834,510.820343 C413.6296387,510.6574402 413.6950073,510.5007629 413.7749023,510.3513489 C413.8553162,510.2019348 413.9481812,510.0582275 414.0529785,509.9197083 C414.1582947,509.7817078 414.2687988,509.6457825 414.3850098,509.5124512 C414.180603,509.3080444 414.010437,509.0605774 413.8745117,508.77005 C413.7391052,508.4795227 413.6711426,508.1158447 413.6711426,507.6779785 C413.6711426,507.2079468 413.7557068,506.7892761 413.9243164,506.420929 C414.0934448,506.0531006 414.3269043,505.7433777 414.6257324,505.4912415 C414.9245605,505.239624 415.2804565,505.0487061 415.6923828,504.9184875 C416.1048279,504.7887878 416.5546265,504.7234192 417.0412598,504.7229004 C417.2902832,504.7234192 417.5299683,504.7358704 417.7592773,504.7607727 C417.9891052,504.785675 418.1981812,504.8287354 418.3859863,504.888916 L421.3078613,504.888916 L421.3078613,506.3664551 Z M415.2067871,514.4431152 C415.2067871,514.7699585 415.3717651,515.0106812 415.7006836,515.1652832 C416.0301208,515.3204346 416.4934082,515.3977051 417.0910645,515.3977051 C417.4729004,515.3977051 417.7955933,515.3619385 418.0581055,515.2897949 C418.3211365,515.2182007 418.5354004,515.1237793 418.701416,515.0075684 C418.8674316,514.8913574 418.9867554,514.7559814 419.0583496,514.6008301 C419.1304626,514.446228 419.1662598,514.2854004 419.1662598,514.1193848 C419.1662598,513.9699707 419.132019,513.8444214 419.0625,513.7416992 C418.9934998,513.6395264 418.8964844,513.553894 418.7719727,513.484375 C418.6474609,513.4154053 418.5011597,513.3629761 418.3320313,513.3266602 C418.1634216,513.2913818 417.9766541,513.2675171 417.7717285,513.2561035 L415.9870605,513.2229004 C415.8267517,513.3339233 415.6954956,513.4387207 415.5927734,513.5383301 C415.4905701,513.6379395 415.4101563,513.7365112 415.3520508,513.8330078 C415.2939453,513.9300537 415.2555542,514.0280762 415.2358398,514.1276855 C415.2166443,514.2272949 415.2067871,514.3326416 415.2067871,514.4431152 Z M415.5471191,507.6779785 C415.5471191,508.1267395 415.678894,508.4826355 415.9414063,508.7451477 C416.2044373,509.0081787 416.571228,509.1394348 417.0412598,509.138916 C417.2902832,509.1394348 417.5076599,509.0979309 417.6928711,509.0149231 C417.8786011,508.9319153 418.0321655,508.8214111 418.1535645,508.6828918 C418.2754822,508.5448914 418.3667908,508.3840637 418.4274902,508.2014465 C418.4887085,508.0188293 418.5187988,507.8279114 418.5187988,507.6281738 C418.5187988,507.1581421 418.3875427,506.7918701 418.1245117,506.5288391 C417.8619995,506.2663269 417.4952087,506.134552 417.0246582,506.1340332 C416.7756348,506.134552 416.5587769,506.1760559 416.3730469,506.2590637 C416.1878357,506.3420715 416.0342712,506.4541321 415.9123535,506.5952454 C415.7909546,506.7363586 415.699646,506.9013367 415.6384277,507.0891418 C415.5777283,507.2774658 415.5471191,507.4735718 415.5471191,507.6779785 Z M430.6296387,508.458252 C430.6296387,508.59729 430.6254883,508.7773132 430.6171875,508.9983215 C430.6088867,509.2198486 430.5964355,509.4273682 430.579834,509.6203613 L425.0349121,509.6203613 C425.0349121,509.9918213 425.09198,510.3181458 425.2050781,510.6003723 C425.3186951,510.8825989 425.4790039,511.1191711 425.6865234,511.3100891 C425.894043,511.5010071 426.1430664,511.6462708 426.4335938,511.7458801 C426.7241211,511.8454895 427.046814,511.8952942 427.4006348,511.8947754 C427.8104858,511.8952942 428.2488708,511.8636475 428.7163086,511.7998352 C429.1842651,511.7365417 429.6698608,511.6322632 430.1730957,511.4880371 L430.1730957,513.0983887 C429.9572754,513.1596069 429.7222595,513.2150879 429.4675293,513.2648926 C429.2133179,513.3146973 428.9528809,513.3588257 428.6872559,513.3972168 C428.4216309,513.4361572 428.1534119,513.46521 427.8820801,513.484375 C427.6112671,513.5040894 427.3482361,513.5134277 427.0935059,513.5134277 C426.4517517,513.5134277 425.8764038,513.4226074 425.3669434,513.2399902 C424.8580017,513.057373 424.4263611,512.7875977 424.0720215,512.4306641 C423.7182007,512.0737305 423.4468689,511.632782 423.2585449,511.10672 C423.0707397,510.5811768 422.9763184,509.9721069 422.9763184,509.2800293 C422.9763184,508.5941772 423.0707397,507.9705811 423.2585449,507.4087219 C423.4468689,506.8473816 423.7124939,506.3659363 424.0554199,505.964386 C424.3988647,505.5633545 424.8149414,505.2536316 425.3046875,505.0346985 C425.7944336,504.8162842 426.3412476,504.7068176 426.9440918,504.7062988 C427.541748,504.7068176 428.0704041,504.7996826 428.529541,504.9848938 C428.9891968,505.1706238 429.3736267,505.4289856 429.6833496,505.7610168 C429.9935913,506.0930481 430.2286072,506.4888916 430.388916,506.9480286 C430.5497437,507.4076843 430.6296387,507.9109192 430.6296387,508.458252 Z M428.5710449,508.1677246 C428.5767517,507.8362122 428.5352478,507.5472412 428.4465332,507.3008118 C428.3583374,507.0549011 428.2379761,506.851532 428.0854492,506.6907043 C427.9334412,506.5303955 427.7565308,506.4115906 427.5541992,506.3337708 C427.3523865,506.2564697 427.1350098,506.2175598 426.9025879,506.217041 C426.3936462,506.2175598 425.9760132,506.3877258 425.6491699,506.7280579 C425.3228455,507.0683899 425.1293335,507.5482788 425.0681152,508.1677246 Z M439.8684082,513.239502 C439.5031738,513.3225098 439.1353455,513.388916 438.7644043,513.4387207 C438.3939819,513.4885254 438.0422363,513.5134277 437.7102051,513.5134277 C437.1571655,513.5134277 436.6798706,513.4553223 436.2783203,513.3391113 C435.8772888,513.2233887 435.5452576,513.0465088 435.2822266,512.8083496 C435.0197144,512.5708008 434.8256836,512.2678223 434.7011719,511.8994446 C434.5766602,511.5316162 434.5144043,511.0927124 434.5144043,510.583252 L434.5144043,506.4660645 L432.248291,506.4660645 L432.248291,504.888916 L434.5144043,504.888916 L434.5144043,502.7307129 L436.5895996,502.1911621 L436.5895996,504.888916 L439.8684082,504.888916 L439.8684082,506.4660645 L436.5895996,506.4660645 L436.5895996,510.4338379 C436.5895996,510.915802 436.7006226,511.2799988 436.9216309,511.5259094 C437.143158,511.7723389 437.5140991,511.8952942 438.0339355,511.8947754 C438.3659668,511.8952942 438.6896973,511.8677979 439.005127,511.8122864 C439.3205566,511.7572937 439.60849,511.6934814 439.8684082,511.6208496 Z" style="fill:rgb(255,255,255);stroke:none" clip-path="url(#clip14)" />
<clipPath id="clip15"><path d="M651,99 L737,99 L737,138 L651,138 L651,99 Z" /></clipPath>
<path d="M660,100 C655.5817261,100 652,103.5817184 652,108 L652,128 C652,132.4182739 655.5817261,136 660,136 L727,136 C731.4182739,136 735,132.4182739 735,128 L735,108 C735,103.5817184 731.4182739,100 727,100 Z" style="fill:rgb(85,142,213);stroke:none" clip-path="url(#clip15)" />
<clipPath id="clip16"><path d="M663,106 L725,106 L725,131 L663,131 L663,106 Z" /></clipPath>
<path d="M665.6467285,124.3479004 L665.6467285,113.4987793 L669.1496582,113.4987793 C670.3839111,113.4992981 671.3094482,113.7151184 671.9262695,114.146759 C672.5436401,114.5783997 672.8518066,115.2315674 672.8518066,116.1052246 C672.8518066,116.3770752 672.8201904,116.6411438 672.7563477,116.898468 C672.6930542,117.1557922 672.5944824,117.3923645 672.4616699,117.6081848 C672.3288574,117.8240051 672.1628418,118.0149231 671.963623,118.1809387 C671.7644043,118.3469543 671.5294189,118.4771729 671.2580566,118.5705566 C671.5294189,118.6151733 671.788269,118.7028503 672.0341797,118.83255 C672.2806396,118.9627686 672.49646,119.1313782 672.6816406,119.3388977 C672.8673706,119.5464172 673.0136719,119.7912903 673.121582,120.0735168 C673.2294922,120.3557434 673.2834473,120.6711731 673.2834473,121.0192871 C673.2834473,122.1264038 672.9130249,122.9580383 672.1711426,123.5141907 C671.4298096,124.070343 670.3590088,124.3479004 668.9587402,124.3479004 Z M670.7268066,116.4621582 C670.7268066,116.2577515 670.6936035,116.0725403 670.6271973,115.9065247 C670.560791,115.740509 670.4544678,115.5993958 670.3076172,115.4831848 C670.1613159,115.3669739 669.9730225,115.2772217 669.7431641,115.2134094 C669.513855,115.150116 669.2357788,115.1179504 668.9089355,115.1174316 L667.6721191,115.1174316 L667.6721191,117.989502 L668.9089355,117.989502 C669.2409668,117.9900208 669.5221558,117.9500732 669.7514648,117.8696594 C669.9813232,117.7897644 670.1696167,117.6787415 670.315918,117.5376282 C670.4627686,117.3965149 670.5680542,117.2346497 670.6313477,117.0520325 C670.6951904,116.8694153 670.7268066,116.6727905 670.7268066,116.4621582 Z M669.0998535,122.6794434 C669.4266968,122.6799622 669.7130737,122.6384583 669.9589844,122.5554504 C670.2054443,122.4724426 670.411377,122.3577881 670.5773926,122.210968 C670.7434082,122.0646667 670.8695068,121.8913879 670.9550781,121.6921692 C671.0411987,121.4929504 671.0837402,121.2797241 671.0837402,121.0524902 C671.0837402,120.5824585 670.9083862,120.2146301 670.5566406,119.9490051 C670.2054443,119.6833801 669.6674194,119.5505676 668.9421387,119.5500488 L667.6721191,119.5500488 L667.6721191,122.6794434 Z M677.3674316,115.9143066 L677.3674316,121.4094238 C677.3674316,121.8690796 677.4535522,122.2166748 677.6247559,122.4516907 C677.7965088,122.6872253 678.0563965,122.8044739 678.4050293,122.8039551 C678.7427979,122.8044739 679.0680542,122.664917 679.3803711,122.3852844 C679.6932373,122.1061707 680.0236816,121.7279663 680.3723145,121.251709 L680.3723145,115.9143066 L682.3977051,115.9143066 L682.3977051,124.3479004 L680.6462402,124.3479004 L680.5964355,123.1027832 C680.4195557,123.3191223 680.239502,123.5157471 680.0568848,123.6926575 C679.8742676,123.8700867 679.6766357,124.0205383 679.4633789,124.14505 C679.2506714,124.2695618 679.0182495,124.3660583 678.7661133,124.4350586 C678.5145264,124.5045776 678.2364502,124.5388184 677.9318848,124.5388184 C677.5002441,124.5388184 677.1225586,124.4687805 676.7988281,124.3276672 C676.4750977,124.186554 676.2053223,123.9862976 675.989502,123.7258606 C675.7736816,123.4659424 675.6118164,123.1546631 675.5039063,122.7920227 C675.3959961,122.4299011 675.342041,122.0242004 675.342041,121.5754395 L675.342041,115.9143066 Z M692.5578613,114.3371582 C692.3145752,114.260376 692.0255737,114.1955261 691.6904297,114.1426086 C691.355835,114.09021 691.013916,114.0637512 690.6652832,114.0632324 C690.4276733,114.0637512 690.2061768,114.0959167 690.0012207,114.1592102 C689.796814,114.2230225 689.6193848,114.3241882 689.4699707,114.4621887 C689.3205566,114.600708 689.2033081,114.7765808 689.1171875,114.9892883 C689.0316162,115.2025146 688.9885254,115.4608765 688.9885254,115.7648926 L688.9885254,117.1262207 L692.3005371,117.1262207 L692.3005371,118.7033691 L688.9885254,118.7033691 L688.9885254,124.3479004 L686.9465332,124.3479004 L686.9465332,118.7033691 L684.4978027,118.7033691 L684.4978027,117.1262207 L686.9465332,117.1262207 L686.9465332,115.8479004 C686.9465332,115.2507629 687.0336914,114.7376709 687.2080078,114.3086243 C687.3823242,113.8800964 687.6287842,113.5283508 687.9467773,113.254425 C688.2653198,112.9804993 688.6481934,112.7802429 689.0964355,112.6526184 C689.5446777,112.5255127 690.0458374,112.4617004 690.598877,112.4611816 C690.9641113,112.4617004 691.3117065,112.4855652 691.640625,112.5322571 C691.9700928,112.5794678 692.2756348,112.6360168 692.5578613,112.7019043 Z M702.1867676,114.3371582 C701.9434814,114.260376 701.65448,114.1955261 701.3193359,114.1426086 C700.9847412,114.09021 700.6428223,114.0637512 700.2941895,114.0632324 C700.0565796,114.0637512 699.835083,114.0959167 699.630127,114.1592102 C699.4257202,114.2230225 699.248291,114.3241882 699.098877,114.4621887 C698.9494629,114.600708 698.8322144,114.7765808 698.7460938,114.9892883 C698.6605225,115.2025146 698.6174316,115.4608765 698.6174316,115.7648926 L698.6174316,117.1262207 L701.9294434,117.1262207 L701.9294434,118.7033691 L698.6174316,118.7033691 L698.6174316,124.3479004 L696.5754395,124.3479004 L696.5754395,118.7033691 L694.126709,118.7033691 L694.126709,117.1262207 L696.5754395,117.1262207 L696.5754395,115.8479004 C696.5754395,115.2507629 696.6625977,114.7376709 696.8369141,114.3086243 C697.0112305,113.8800964 697.2576904,113.5283508 697.5756836,113.254425 C697.8942261,112.9804993 698.2770996,112.7802429 698.7253418,112.6526184 C699.173584,112.5255127 699.6747437,112.4617004 700.2277832,112.4611816 C700.5930176,112.4617004 700.9406128,112.4855652 701.2695313,112.5322571 C701.598999,112.5794678 701.904541,112.6360168 702.1867676,112.7019043 Z M711.5915527,119.4836426 C711.5915527,119.6226807 711.5874023,119.8027039 711.5791016,120.0237122 C711.5708008,120.2452393 711.5583496,120.4527588 711.541748,120.645752 L705.9968262,120.645752 C705.9968262,121.0172119 706.053894,121.3435364 706.1669922,121.6257629 C706.2806396,121.9079895 706.440918,122.1445618 706.6484375,122.3354797 C706.855957,122.5263977 707.1049805,122.6716614 707.3955078,122.7712708 C707.6860352,122.8708801 708.008728,122.9206848 708.3625488,122.920166 C708.7723999,122.9206848 709.2108154,122.8890381 709.6782227,122.8252258 C710.1461792,122.7619324 710.6317749,122.6576538 711.1350098,122.5134277 L711.1350098,124.1237793 C710.9191895,124.1849976 710.6842041,124.240509 710.4294434,124.2903137 C710.1752319,124.3401184 709.9147949,124.3842163 709.6491699,124.4226074 C709.3835449,124.4615173 709.1153564,124.4905701 708.8439941,124.5097656 C708.5731812,124.52948 708.3101807,124.5388184 708.0554199,124.5388184 C707.4136963,124.5388184 706.8383179,124.4480286 706.3288574,124.2654114 C705.8199463,124.0827942 705.3883057,123.8130188 705.0339355,123.4560852 C704.6801147,123.0991516 704.4088135,122.6581726 704.220459,122.1321106 C704.0326538,121.6065674 703.9382324,120.9974976 703.9382324,120.3054199 C703.9382324,119.6195679 704.0326538,118.9959717 704.220459,118.4341125 C704.4088135,117.8727722 704.6744385,117.3913269 705.017334,116.9897766 C705.3607788,116.5887451 705.7768555,116.2790222 706.2666016,116.0600891 C706.7563477,115.8416748 707.3031616,115.7322083 707.9060059,115.7316895 C708.5036621,115.7322083 709.0323486,115.8250732 709.4914551,116.0102844 C709.9511108,116.1960144 710.3355713,116.4543762 710.6452637,116.7864075 C710.9555054,117.1184387 711.1905518,117.5142822 711.3508301,117.9734192 C711.5116577,118.433075 711.5915527,118.9363098 711.5915527,119.4836426 Z M709.532959,119.1931152 C709.5386963,118.8616028 709.4971924,118.5726318 709.4084473,118.3262024 C709.3202515,118.0802917 709.1998901,117.8769226 709.0473633,117.716095 C708.8953857,117.5557861 708.7184448,117.4369812 708.5161133,117.3591614 C708.3143311,117.2818604 708.0969238,117.2429504 707.864502,117.2424316 C707.3555908,117.2429504 706.9379272,117.4131165 706.611084,117.7534485 C706.28479,118.0937805 706.0912476,118.5736694 706.0300293,119.1931152 Z M719.3029785,119.1931152 C719.3143921,118.8782043 719.2988281,118.6099854 719.2573242,118.3884583 C719.2158203,118.16745 719.1494141,117.9848328 719.0581055,117.8406067 C718.9667969,117.6968994 718.8547363,117.5915833 718.7219238,117.525177 C718.5891113,117.4587708 718.4371338,117.4255676 718.2653809,117.4250488 C717.9665527,117.4255676 717.6583862,117.5490417 717.3398438,117.7949524 C717.0218506,118.0413818 716.6716309,118.4465637 716.2897949,119.010498 L716.2897949,124.3479004 L714.2145996,124.3479004 L714.2145996,115.9143066 L716.0490723,115.9143066 L716.1237793,117.1428223 C716.2623291,116.9275208 716.418457,116.7340088 716.5927734,116.5622864 C716.7670898,116.3910828 716.9611206,116.2427063 717.1738281,116.1181946 C717.387085,115.9936829 717.6236572,115.8982239 717.8835449,115.8318176 C718.1439819,115.7654114 718.428833,115.7322083 718.7385254,115.7316895 C719.164978,115.7322083 719.5426636,115.8058777 719.871582,115.952179 C720.2010498,116.098999 720.4775391,116.3163757 720.7016602,116.6037903 C720.9257813,116.8917236 721.0917969,117.2528076 721.199707,117.6870422 C721.3076172,118.1217957 721.3532715,118.6234741 721.3366699,119.1931152 Z" style="fill:rgb(255,255,255);stroke:none" clip-path="url(#clip16)" />
<clipPath id="clip17"><path d="M450,277 L805,277 L805,465 L450,465 L450,277 Z" /></clipPath>
<path d="M801.836731,281 C729,410 599,426 454,458.7826233" style="fill:none;stroke:rgb(119,147,60);stroke-width:3;stroke-dasharray:18,9;stroke-dashoffset:0" clip-path="url(#clip17)" />
<clipPath id="clip18"><path d="M450,277 L805,277 L805,465 L450,465 L450,277 Z" /></clipPath>
<path d="M461.3444519,451.9959412 L454,458.7826233 L463.5496521,461.7497559 Z" style="fill:rgb(119,147,60);stroke:none" clip-path="url(#clip18)" />
<clipPath id="clip19"><path d="M450,277 L805,277 L805,465 L450,465 L450,277 Z" /></clipPath>
<path d="M461.3444519,451.9959412 L454,458.7826233 L463.5496521,461.7497559 Z" style="fill:none;stroke:rgb(119,147,60);stroke-width:3" clip-path="url(#clip19)" />
<clipPath id="clip20"><path d="M64,273 L403,273 L403,525 L64,525 L64,273 Z" /></clipPath>
<path d="M68.2442627,277 C119,521 259,513 399,509.6567078" style="fill:none;stroke:rgb(119,147,60);stroke-width:3;stroke-dasharray:18,9;stroke-dashoffset:0" clip-path="url(#clip20)" />
<clipPath id="clip21"><path d="M64,273 L403,273 L403,525 L64,525 L64,273 Z" /></clipPath>
<path d="M390.4615784,514.8620605 L399,509.6567078 L390.2228394,504.8648987 Z" style="fill:rgb(119,147,60);stroke:none" clip-path="url(#clip21)" />
<clipPath id="clip22"><path d="M64,273 L403,273 L403,525 L64,525 L64,273 Z" /></clipPath>
<path d="M390.4615784,514.8620605 L399,509.6567078 L390.2228394,504.8648987 Z" style="fill:none;stroke:rgb(119,147,60);stroke-width:3" clip-path="url(#clip22)" />
<clipPath id="clip23"><path d="M112,249 L365,249 L365,269 L112,269 L112,249 Z" /></clipPath>
<path d="M361,260.1951599 L116,259.2764893" style="fill:none;stroke:rgb(119,147,60);stroke-width:3;stroke-dasharray:18,9;stroke-dashoffset:0" clip-path="url(#clip23)" />
<clipPath id="clip24"><path d="M112,249 L365,249 L365,269 L112,269 L112,249 Z" /></clipPath>
<path d="M124.6789551,254.309021 L116,259.2764893 L124.641449,264.30896 Z" style="fill:rgb(119,147,60);stroke:none" clip-path="url(#clip24)" />
<clipPath id="clip25"><path d="M112,249 L365,249 L365,269 L112,269 L112,249 Z" /></clipPath>
<path d="M124.6789551,254.309021 L116,259.2764893 L124.641449,264.30896 Z" style="fill:none;stroke:rgb(119,147,60);stroke-width:3" clip-path="url(#clip25)" />
<clipPath id="clip26"><path d="M450,276 L589,276 L589,451 L450,451 L450,276 Z" /></clipPath>
<path d="M454,447.6498413 C585,365 561,331 472.7021179,281" style="fill:none;stroke:rgb(119,147,60);stroke-width:3;stroke-dasharray:18,9;stroke-dashoffset:0" clip-path="url(#clip26)" />
<clipPath id="clip27"><path d="M450,276 L589,276 L589,451 L450,451 L450,276 Z" /></clipPath>
<path d="M482.7017822,280.9164429 L472.7021179,281 L477.774292,289.6181641 Z" style="fill:rgb(119,147,60);stroke:none" clip-path="url(#clip27)" />
<clipPath id="clip28"><path d="M450,276 L589,276 L589,451 L450,451 L450,276 Z" /></clipPath>
<path d="M482.7017822,280.9164429 L472.7021179,281 L477.774292,289.6181641 Z" style="fill:none;stroke:rgb(119,147,60);stroke-width:3" clip-path="url(#clip28)" />
<clipPath id="clip29"><path d="M508,251 L765,251 L765,271 L508,271 L508,251 Z" /></clipPath>
<path d="M761,262.7279968 L512,261.0026855" style="fill:none;stroke:rgb(119,147,60);stroke-width:3;stroke-dasharray:18,9;stroke-dashoffset:0" clip-path="url(#clip29)" />
<clipPath id="clip30"><path d="M508,251 L765,251 L765,271 L508,271 L508,251 Z" /></clipPath>
<path d="M520.6947021,256.0628052 L512,261.0026855 L520.6254272,266.062561 Z" style="fill:rgb(119,147,60);stroke:none" clip-path="url(#clip30)" />
<clipPath id="clip31"><path d="M508,251 L765,251 L765,271 L508,271 L508,251 Z" /></clipPath>
<path d="M520.6947021,256.0628052 L512,261.0026855 L520.6254272,266.062561 Z" style="fill:none;stroke:rgb(119,147,60);stroke-width:3" clip-path="url(#clip31)" />
<clipPath id="clip32"><path d="M419,113 L455,113 L455,244 L419,244 L419,113 Z" /></clipPath>
<path d="M437,117 L436.5527039,240" style="fill:none;stroke:rgb(119,147,60);stroke-width:3;stroke-dasharray:18,9;stroke-dashoffset:0" clip-path="url(#clip32)" />
<clipPath id="clip33"><path d="M419,113 L455,113 L455,244 L419,244 L419,113 Z" /></clipPath>
<path d="M431.5842285,231.3216248 L436.5527039,240 L441.5841675,231.3579865 Z" style="fill:rgb(119,147,60);stroke:none" clip-path="url(#clip33)" />
<clipPath id="clip34"><path d="M419,113 L455,113 L455,244 L419,244 L419,113 Z" /></clipPath>
<path d="M431.5842285,231.3216248 L436.5527039,240 L441.5841675,231.3579865 Z" style="fill:none;stroke:rgb(119,147,60);stroke-width:3" clip-path="url(#clip34)" />
<clipPath id="clip35"><path d="M274,277 L417,277 L417,495 L274,495 L274,277 Z" /></clipPath>
<path d="M398.9811401,281 C291,340 278,308 413.2014771,491" style="fill:none;stroke:rgb(119,147,60);stroke-width:3;stroke-dasharray:18,9;stroke-dashoffset:0" clip-path="url(#clip35)" />
<clipPath id="clip36"><path d="M274,277 L417,277 L417,495 L274,495 L274,277 Z" /></clipPath>
<path d="M404.0338745,487.0056763 L413.2014771,491 L412.0768738,481.063446 Z" style="fill:rgb(119,147,60);stroke:none" clip-path="url(#clip36)" />
<clipPath id="clip37"><path d="M274,277 L417,277 L417,495 L274,495 L274,277 Z" /></clipPath>
<path d="M404.0338745,487.0056763 L413.2014771,491 L412.0768738,481.063446 Z" style="fill:none;stroke:rgb(119,147,60);stroke-width:3" clip-path="url(#clip37)" />
<clipPath id="clip38"><path d="M508,121 L656,121 L656,245 L508,245 L508,121 Z" /></clipPath>
<path d="M512,241.2429199 C560,229 575,147 652,128.1561127" style="fill:none;stroke:rgb(119,147,60);stroke-width:3" clip-path="url(#clip38)" />
<clipPath id="clip39"><path d="M508,121 L656,121 L656,245 L508,245 L508,121 Z" /></clipPath>
<path d="M644.7765503,135.0714417 L652,128.1561127 L642.3994141,125.358078 Z" style="fill:rgb(119,147,60);stroke:none" clip-path="url(#clip39)" />
<clipPath id="clip40"><path d="M508,121 L656,121 L656,245 L508,245 L508,121 Z" /></clipPath>
<path d="M644.7765503,135.0714417 L652,128.1561127 L642.3994141,125.358078 Z" style="fill:none;stroke:rgb(119,147,60);stroke-width:3" clip-path="url(#clip40)" />
</svg>
